<?xml version="1.0" encoding="UTF-8"?>
<svg id="Camada_1" data-name="Camada 1" xmlns="http://www.w3.org/2000/svg" version="1.1" viewBox="0 0 945 156">
  <defs>
    <style>
      .cls-1 {
        fill: #000;
        stroke-width: 0px;
      }
    </style>
  </defs>
  <path class="cls-1" d="M23,120.5V35.5h43.8c10,0,16.9,1.3,21.9,3.8,6.3,3.8,9.4,10,9.4,18.1s-3.8,15.6-12.5,20.6c8.8,3.8,13.1,9.4,13.1,19.4,0,16.3-9.4,23.1-28.8,23.1H23ZM40.5,70.5h26.3c8.1,0,11.9-3.1,11.9-10s-3.8-10-11.9-10h-26.3v20ZM78.6,95.5c0-6.9-3.8-10-11.9-10h-26.3v20h26.3c8.1,0,11.9-3.1,11.9-10"/>
  <path class="cls-1" d="M154.3,35.5c20,0,29.4,7.5,29.4,25.6s-6.3,21.3-16.9,23.8l21.3,35h-20l-18.8-33.1h-21.3v33.1h-18.1V35.5h44.4ZM128.7,50.5v21.3h21.9c10.6,0,15.6-1.9,15.6-10.6s-5-10.6-15.6-10.6h-21.9Z"/>
  <rect class="cls-1" x="197.4" y="35.5" width="18.8" height="84.4"/>
  <path class="cls-1" d="M269.3,35.5c27.5,0,40,13.8,40,43.8s-4.4,26.3-13.1,33.1c-8.1,6.9-16.3,7.5-26.3,7.5h-39.4V35.5h38.8ZM248.1,50.5v55h20.6c15.6,0,20.6-6.9,20.6-27.5s-5-27.5-20.6-27.5h-20.6Z"/>
  <path class="cls-1" d="M354.3,69.9h41.9v50h-38.1c-10,0-18.1-.6-26.9-7.5-8.8-6.9-13.1-18.1-13.1-33.1,0-30,12.5-43.8,40-43.8h38.1v14.4h-38.1c-14.4,0-20,9.4-20,28.8s5.6,26.3,20,26.3h20v-20h-23.8v-15Z"/>
  <path class="cls-1" d="M427.5,69.9h49.4v15h-49.4c0,15,6.3,20.6,20,20.6h29.4v14.4h-30c-10,0-18.1-.6-26.3-7.5-8.8-6.9-13.1-18.1-13.1-33.1,0-30,12.5-43.8,40-43.8h29.4v15h-29.4c-12.5,0-19.4,6.3-20,19.4"/>
  <polygon class="cls-1" points="506.9 35.5 526.3 100.5 542.5 35.5 563.8 35.5 583.2 100.5 601.3 35.5 619.4 35.5 593.2 120.5 571.3 120.5 553.1 57.4 537.5 120.5 515.6 120.5 487.5 35.5 506.9 35.5"/>
  <path class="cls-1" d="M663.2,35.5l36.3,84.4h-20l-7.5-20h-36.9l-7.5,20h-18.8l35.6-84.4h18.8ZM640,84.9h25l-13.1-32.5-11.9,32.5Z"/>
  <polygon class="cls-1" points="684.4 50.5 684.4 35.5 758.2 35.5 758.2 50.5 730.7 50.5 730.7 120.5 711.9 120.5 711.9 50.5 684.4 50.5"/>
  <path class="cls-1" d="M780.1,69.9h49.4v15h-49.4c0,15,6.3,20.6,20,20.6h29.4v14.4h-30c-10,0-18.1-.6-26.3-7.5-8.8-6.9-13.1-18.1-13.1-33.1,0-30,12.5-43.8,40-43.8h29.4v15h-29.4c-12.5,0-19.4,6.3-20,19.4"/>
  <path class="cls-1" d="M888.2,35.5c20,0,29.4,7.5,29.4,25.6s-6.3,21.3-16.9,23.8l21.3,35h-20l-18.8-33.1h-21.3v33.1h-18.1V35.5h44.4ZM862,50.5v21.3h21.9c10.6,0,15.6-1.9,15.6-10.6s-5-10.6-15.6-10.6h-21.9Z"/>
</svg>