<?xml version="1.0" encoding="utf-8"?>
<!-- Generator: Adobe Illustrator 28.2.0, SVG Export Plug-In . SVG Version: 6.00 Build 0)  -->
<svg version="1.1" id="Layer_1" xmlns="http://www.w3.org/2000/svg" xmlns:xlink="http://www.w3.org/1999/xlink" x="0px" y="0px"
	 viewBox="0 0 234.8 58.4" style="enable-background:new 0 0 234.8 58.4;" xml:space="preserve">
<style type="text/css">
	.st0{fill:#6F94C4;}
	.st1{fill:#B1C6E0;}
	.st2{fill:#6F95C5;}
	.st3{display:none;}
</style>
<g>
	<g>
		<path class="st0" d="M88.6,34.9c-0.2,0-0.3-0.1-0.3-0.3L88.2,34c-1.5,0.7-3.8,1.2-6.1,1.2c-6.5,0-10.5-4.5-10.5-10.6
			c0-6.4,3.6-11.2,10.5-11.2c1.9,0,3.8,0.4,5.3,1.2l0.1-0.6c0-0.2,0.1-0.3,0.3-0.3h0.4c0.2,0,0.2,0,0.2,0.3v6.2c0,0.2,0,0.2-0.3,0.2
			h-0.5c-0.2,0-0.3-0.1-0.3-0.2v-0.6c0-2.9-2.3-5.1-5.4-5.1c-5.2,0-6.3,4.2-6.3,10.2c0,4.6,1.2,9.6,6.5,9.6c3.8,0,5.9-2,6.2-5.4
			l0.1-0.8c0-0.2,0-0.2,0.2-0.2h0.7c0.2,0,0.3,0.1,0.3,0.2l-0.4,6.5c0,0.2,0,0.3-0.2,0.3H88.6z"/>
		<path class="st0" d="M100.2,35.1c-5,0-7.8-3.1-7.8-8c0-5.1,2.9-8.7,8-8.7c5,0,7.8,3,7.8,8C108.2,31.5,105.3,35.1,100.2,35.1z
			 M100.3,19.4c-3.5,0-4.4,3.1-4.4,7.6c0,4.1,0.9,7.1,4.4,7.1s4.5-3.1,4.5-7.7C104.7,22.3,103.8,19.4,100.3,19.4z"/>
		<path class="st0" d="M110.6,34.7c-0.2,0-0.3,0-0.3-0.2v-0.4c0-0.2,0.1-0.2,0.3-0.2h1.7c0.8,0,0.8-0.2,0.8-2.6V15.1
			c0-2.4,0-2.6-0.8-2.6h-1.7c-0.2,0-0.3-0.1-0.3-0.2v-0.4c0-0.2,0.1-0.2,0.3-0.2h5.2c0.2,0,0.3,0.1,0.3,0.4v19.2
			c0,2.4,0,2.6,0.9,2.6h1.6c0.2,0,0.3,0.1,0.3,0.2v0.4c0,0.2-0.1,0.2-0.3,0.2C118.6,34.7,110.6,34.7,110.6,34.7z"/>
		<path class="st0" d="M127.9,35.1c-4.2,0-7-3.1-7-8.1c0-4.6,2.7-8.6,7.7-8.6c2.7,0,4.8,1.3,4.8,3.4c0,1-0.7,1.4-1.8,1.4
			c-1.2,0-1.7-0.5-1.7-1.3c0-0.7,0.3-1.4,0.6-2.1c-0.4-0.2-1.1-0.4-1.9-0.4c-3,0-4.4,1.9-4.4,7c0,4.7,1.1,7.1,4.3,7.1
			c2.3,0,3.7-1.4,4.2-3.4c0-0.2,0.1-0.2,0.3-0.2l0.4,0.1c0.2,0,0.2,0.1,0.1,0.3C133.2,33,131.2,35.1,127.9,35.1z"/>
		<path class="st0" d="M147.1,34.7c-0.2,0-0.3,0-0.3-0.2v-0.4c0-0.2,0.1-0.2,0.3-0.2h1.3c0.8,0,0.9-0.2,0.9-2.6v-7.5
			c0-2.9-1.3-3.9-3.5-3.9c-2,0-3.3,1.1-4.2,2.7v8.7c0,2.4,0,2.6,0.9,2.6h1.3c0.2,0,0.3,0.1,0.3,0.2v0.4c0,0.2-0.1,0.2-0.3,0.2h-7.6
			c-0.2,0-0.3,0-0.3-0.2v-0.4c0-0.2,0.1-0.2,0.3-0.2h1.7c0.8,0,0.8-0.2,0.8-2.6V15.1c0-2.4,0-2.6-0.8-2.6h-1.7
			c-0.2,0-0.3-0.1-0.3-0.2v-0.4c0-0.2,0.1-0.2,0.3-0.2h5.2c0.2,0,0.3,0.1,0.3,0.4v9.1h0.1c0.9-1.5,2.6-2.7,5.3-2.7
			c2.5,0,5.3,1.2,5.3,5.4v7.4c0,2.4,0,2.6,0.9,2.6h1.5c0.2,0,0.3,0.1,0.3,0.2v0.4c0,0.2-0.1,0.2-0.3,0.2
			C154.8,34.7,147.1,34.7,147.1,34.7z"/>
		<path class="st0" d="M164.6,35.1c-4.4,0-7.5-3.1-7.5-8.1c0-4.5,2.6-8.6,7.6-8.6c3.3,0,6.5,2.1,6.5,6.3v0.2c0,0.8-0.3,1.1-1.3,1.1
			h-9.4v0.7c0,4.1,1.2,6.9,4.9,6.9c2.6,0,4.2-1.4,4.9-3.4c0.1-0.2,0.1-0.3,0.3-0.2l0.4,0.1c0.2,0,0.2,0.1,0.1,0.3
			C170.5,32.9,168.3,35.1,164.6,35.1z M164.3,19.4c-2.8,0-3.8,2.4-3.8,5.6h5.7c1.3,0,1.6-0.2,1.6-1.2
			C167.9,20.9,166.6,19.4,164.3,19.4z"/>
		<path class="st0" d="M179.8,35.1c-1.7,0-3.1-0.4-4.1-1.1l-0.1,0.6c0,0.2,0,0.3-0.2,0.3h-0.3c-0.2,0-0.3-0.1-0.3-0.3l-0.2-4.9
			c0-0.2,0-0.2,0.2-0.2h0.5c0.2,0,0.2,0,0.3,0.2l0.1,0.4c0.3,1.8,1.8,4,4.3,4c2.1,0,3.3-0.9,3.3-2.5c0-2-1.9-2.8-3.8-3.7
			c-2.3-1.1-4.6-2.2-4.6-5.2c0-2.4,2-4.4,4.9-4.4c1.4,0,2.6,0.4,3.5,1.1l0.1-0.6c0-0.2,0.1-0.3,0.2-0.3h0.3c0.2,0,0.2,0.1,0.2,0.3
			v4.5c0,0.2,0,0.2-0.3,0.2h-0.4c-0.2,0-0.3-0.1-0.3-0.2V23c-0.1-2.2-1.7-3.7-3.6-3.7c-1.7,0-2.5,0.9-2.5,2.1c0,1.7,1.5,2.5,3.6,3.5
			c2.7,1.3,4.9,2.3,4.9,5.5C185.5,33.1,183.2,35.1,179.8,35.1z"/>
		<path class="st0" d="M194.1,35.1c-2.5,0-4.2-1.7-4.2-4.5V19.9h-2.5c-0.2,0-0.3,0-0.3-0.2v-0.4c0-0.2,0.1-0.2,0.3-0.2l2.5-0.2v-3.1
			c0-0.2,0-0.2,0.2-0.3c0.8-0.5,1.5-1,2.2-1.7c0.2-0.2,0.2-0.2,0.4-0.2h0.1c0.2,0,0.2,0,0.2,0.2V19h3.9c0.2,0,0.3,0,0.3,0.2v0.4
			c0,0.2-0.1,0.2-0.3,0.2h-4v11.1c0,1.8,0.5,2.9,2,2.9c1.1,0,1.8-0.6,2.1-1.7c0-0.2,0.1-0.2,0.3-0.2l0.4,0.1c0.2,0,0.2,0.2,0.2,0.3
			C197.4,33.9,196.2,35.1,194.1,35.1z"/>
		<path class="st0" d="M206.7,35.1c-4.4,0-7.5-3.1-7.5-8.1c0-4.5,2.6-8.6,7.6-8.6c3.3,0,6.5,2.1,6.5,6.3v0.2c0,0.8-0.3,1.1-1.3,1.1
			h-9.4v0.7c0,4.1,1.2,6.9,4.9,6.9c2.6,0,4.2-1.4,4.9-3.4c0.1-0.2,0.1-0.3,0.3-0.2l0.4,0.1c0.2,0,0.2,0.1,0.1,0.3
			C212.6,32.9,210.4,35.1,206.7,35.1z M206.4,19.4c-2.8,0-3.8,2.4-3.8,5.6h5.7c1.3,0,1.6-0.2,1.6-1.2
			C210,20.9,208.7,19.4,206.4,19.4z"/>
		<path class="st0" d="M216,34.7c-0.2,0-0.3,0-0.3-0.2v-0.4c0-0.2,0.1-0.2,0.3-0.2h1.7c0.8,0,0.8-0.2,0.8-2.6V23
			c0-3.1-0.3-3.2-1.2-3.2H216c-0.2,0-0.3,0-0.3-0.2v-0.4c0-0.2,0.1-0.2,0.3-0.2h4.8c0.2,0,0.3,0.1,0.3,0.4v2.8h0.1
			c1.1-2.3,2.6-3.6,4.6-3.6c1.7,0,2.8,1.2,2.8,2.9c0,1.1-0.7,1.5-1.8,1.5s-1.5-0.5-1.5-1.3c0-0.6,0.2-1.2,0.4-1.7
			c-0.1-0.1-0.3-0.1-0.5-0.1c-1.5,0-2.6,1-3.8,3.2v8.3c0,2.4,0,2.6,0.9,2.6h2.3c0.2,0,0.3,0.1,0.3,0.2v0.4c0,0.2-0.1,0.2-0.3,0.2
			L216,34.7L216,34.7z"/>
	</g>
	<g id="map_4_">
		<path class="st1" d="M16.7,21.6c0,0-0.4,2.1-0.1,2.4s0.8,0,0.8,0s-0.8-0.4-0.1-1.1c0.6-0.7,0.6-1.1,1.2-1.4s1,0.3,1.1,0.7
			c0,0.4-0.1,1.6,0.7,0.3c0.7-1.3,0.8-1.9,1.3-2s1.2-0.4,1.6-0.4s0.5-0.5,0.7,0s-0.1,0.9-0.6,1s-0.8,0.5-1.2,0.8
			c-0.4,0.4-0.7,1.2-0.6,1.4c0,0.2-0.3,0.5,0.2,0.9c0.4,0.4,1,0.8,1.2,1.3c0.3,0.4,0.7,0.4,0.4,1c-0.3,0.6-0.1,1-0.9,1.4
			c-0.7,0.4-2.4,0.6-1.7-0.1c0.6-0.6,1.1-0.7,1-1.4c-0.1-0.8,0.5-1.6-0.7-0.8c-1.3,0.8-0.7,1.7-1.7,2.1c-1.1,0.4-1.9,0.7-1.9,1.1
			c0,0.5,0.8,1.3,1.1,1.5c0.3,0.2-0.2,0.8,0.6,1.1c0.8,0.3,1.3,0.9,1.2-0.6c-0.2-1.5-0.2-1.8,0-2.1c0.2-0.3,1-0.6,1.1-0.3
			c0.1,0.4,0.1,0.8,0.6,0.9c0.6,0.1,0.9,0,1.2,0.3c0.3,0.4,0.3,0.4,0.4,0.7c0.1,0.3,0.3,0.4,0.9,0.8s0.5,0.4,0.7,0.9
			c0.2,0.5,0.7,0.4,0.8,0.6c0.1,0.2-0.8,0.9-1,0.5c-0.3-0.4-0.3-1-0.8-0.9c-0.5,0-1,0.3-1.1,0.5c-0.1,0.3-0.7,0.2-0.3,0.5
			c0.3,0.3-0.1,0,0.7,0.5c0.8,0.5,1,0.6,0.4,0.7c-0.6,0.1-0.6-0.1-1.2,0.2s-0.1,0.1-0.9,0.9c-0.7,0.8-0.5-0.3-0.7,0.8
			c-0.2,1-0.8,2.1-0.8,2.6c0,0.6,0.2,1.2-0.2,0.9c-0.4-0.4-0.2-1-0.8-1.1c-0.6-0.1-1.4-0.1-1.8,0.2s-0.6,0.1-0.2,1s0.3,1.1,0.7,1.4
			c0.3,0.4,0.8,1,1.1,0.5c0.3-0.5,0.5-1.5,0.6-0.9c0.1,0.5-0.1,0.7,0.2,1.2c0.3,0.5,0.1,0.4,0.5,0.7c0.3,0.2,0.1,0.8,0.4,1.2
			c0.1,0.1,0.3,0.3,0.7,0.3c0.3,0.1,0.5,0.1,0.7,0.2c0.7,0.2,0.9,0.2,1.1,0.1c0.2-0.1,0.7-0.5,1.2-0.5s2.6-0.7,3.1-0.2
			s-0.3,0.6,0.6,0.7c1,0.1,1.6-0.4,2.4,0.1s1.1,1.2,2.3,1.3c1.1,0,2.5-1,2.8-0.2c0.3,0.8,0.6,0.5-0.1,1.6c-0.7,1.1-1.5,1.6-1.5,2.4
			c0,0.7,1.7,2.4,1.1,2.5c-0.9,0.1-3.6,0.4-3.9,0.3c-0.3,0-3.9-2-4.9-2.7c-0.9-0.6-2.6-1.1-2.8-2.6c-0.1-1.5-0.3-1.7-0.2-2.2
			c0.1-0.5-1.1-0.2-1.6-0.3s-1.9-1.8-2.6-1.9c-0.7-0.1-1.7-0.1-2.5-1c-0.8-0.9-1.6-2.1-2.2-3.1c-0.6-1-1.6-1.6-1.6-2.2
			c-0.1-0.5-0.5-3.9-0.1-6.4c0.5-2.5,1.1-4.6,1.7-5.7C15.1,23.6,16.7,21.6,16.7,21.6z"/>
		<path class="st1" d="M25.3,20.3c0.7-0.1,1-1.1,1.3-1.1s0.5-0.2,1,0.5c0.5,0.7,0.9,1,1.2,1.3c0.3,0.3,0.3,0.3,0.6,1.4
			c0.3,1.1,0.8,0.8,0.1,1.5c-0.6,0.7-1.1,0.7-1.3,1.3c-0.2,0.6-0.5,1.8-0.9,2.3c-0.3,0.5-0.8,0.8-1.1,0.4c-0.3-0.4-0.7-0.2-1.2-1.2
			s-0.4-0.7-0.4-1.9c0-1.2-0.4-1.3-0.7-1.7c-0.4-0.4-1.4-0.1-1.2-0.7c0.2-0.6,0.6-0.6,1.1-0.8c0.5-0.2,0.7-1.3,0.7-1.3
			S24.9,20.3,25.3,20.3z"/>
		<path class="st1" d="M37.3,15c0,0.3,0.2,1.8,0.6,2.4c0.5,0.6,1.5,1.2,1,1.4c-0.5,0.2,0.3,0.1-1.2-0.5s-0.6-0.4-1.1,0
			s-1.4-1.1-0.9,0.7c0.6,1.8,0.5,1.7,0.6,2.6s0.1,1.8,0.7,2.1c0.6,0.3,1.7,0.6,1.9,0.6s0.7-0.7,0.7-0.9c0-0.2-0.2-0.9-0.8-1.3
			c-0.7-0.5-1.5-1.3-1.5-1.7c0-0.4,0.5-0.2,1.3,0.4s1.5,1.6,1.5,1.9s-1.2,2-1.2,2.5s-0.4,1.1-0.4,1.1s-0.4,0.6-0.3,1.1
			c0.1,0.5,0.7,0.9,0.7,1.4s-1.1,0.7-1.1,1.2c0.1,0.5,0.1,1.3,0.3,1.5c0.3,0.1,1.5,0.2,1.7,0c0.2-0.3,0.3-1,0.3-1.4
			s-0.3-1.5,0.2-1.8c0.5-0.4,1.1-1.5,1.4-1.5c0.3,0,0.5,0.4,0.9,0.7c0.3,0.3,0.3,0.6,0.3,0.6l-0.3-1.5l0.2-0.4c0,0,0.4,0.5,0.9,0.6
			c0.4,0.1,0.7,0.2,0.6-0.2c-0.1-0.5-0.5-1.1-0.1-0.9c0.4,0.1,0.9,0.5,1.2,0.4s0.6-0.8,0.8-0.2c0.3,0.5,0.4,0.8,0.5,1
			s1.2,1.1,1.5,1.3c0.3,0.2,2,1.2,2.3,1.4c0.3,0.2-0.8-2.9-1.2-3.8c-0.8-1.9-1.8-3.4-4.3-6.2c-1.6-1.8-5.2-3.5-6-3.8
			C38.3,15.4,37.3,15,37.3,15z"/>
		<path class="st1" d="M46.1,27.8c-0.3,0-0.6,0.7-0.7,1.2c-0.1,0.5-0.8,1.2-1.3,1s-0.5-1.1-1.3-0.9s-0.4-0.2-1,0.8s-2.7,1.8-2.8,2.6
			c-0.2,0.8-0.3,1.3-0.2,2.5c0,1.3-0.9,2.3-0.3,3.3c0.6,1,0.8,2,2.1,2.1c1.3,0,2.7-0.3,3-0.9c0.2-0.6,0.6-1.4,1.1-1.5
			c0.8-0.2,1.1-0.5,1.4,0.3c0.2,0.8,0.7,1.1,1,1.2c0.3,0.1,0.7-1.2,0.4,1c-0.4,2.1-0.2,4.3-0.2,4.3s2.3-3.4,3-6
			c0.4-1.6,0.8-4.6,0.7-6.4c-0.1-0.9-0.6-1.9-1.3-2.3s-1.2-0.7-1.5-1.1c-0.4-0.4-1.2-1.2-1.2-1.2S46.9,27.8,46.1,27.8z"/>
		<path class="st1" d="M35.3,24.4c0,0-0.4,1.1-0.2,1.4c0.3,0.4,0.6,0.3,0.9,0.5c0.3,0.2,0.2,0.7,0.7,1.2c0.4,0.5,0.8-0.2,1-0.7
			c0.1-0.6,0.2-1-0.2-1.2C37,25.3,35.6,24.4,35.3,24.4z"/>
		<path class="st1" d="M35.1,27c-0.2,0-0.1,1,0.1,1c0.2,0.1,0.4,0.4,0.6,0c0.3-0.4-0.5-1.4-0.5-1.4S35.4,27.1,35.1,27z"/>
		<path class="st1" d="M31.7,23.7c0,0-0.5,0.2-0.7,0.3c-0.2,0.1-0.3,0.4-0.3,0.7c0,0.3,0.5,0.6,0.8,0.6c0.2,0,0.9-1,0.9-1
			S32.1,23.7,31.7,23.7z"/>
		<path class="st1" d="M31.4,17.5c0,0-0.2,0.3,0,0.6c0.2,0.4,0.2,0.5,0.7,0.5c0.5,0,0.7,0.4,0.7,0.4s0.3-0.4,0.3-0.7
			c0-0.3-0.9-0.9-0.9-0.9S31.9,17.4,31.4,17.5z"/>
	</g>
	<g id="i_4_">
		<path class="st0" d="M60.1,34.5l-3.6-0.2c0-0.6,0-0.6,0-1.2c-0.1-3.1-0.7-6.1-1.9-8.9l3.3-1.4c1.3,3.2,2,6.6,2.1,10
			C60.2,33.8,60.2,33.8,60.1,34.5z"/>
		<path class="st0" d="M53.2,21.3c-0.6-1-1.3-2-2-3l2.8-2.2c0.8,1.1,1.6,2.2,2.3,3.4L53.2,21.3z"/>
	</g>
	<path class="st0" d="M31.5,53.5c-9,0-17.1-6.2-19.2-15.3C9.8,27.6,16.4,17,27,14.5c6.8-1.6,13.7,0.5,18.5,5.4l-2.6,2.5
		c-4-4.1-9.7-5.7-15.2-4.4C19,20,13.6,28.7,15.6,37.4S26.3,51.5,35,49.5c7.4-1.7,12.6-8.5,12.5-15.9L45,34.3l-0.9-3.5l6.6-1.7l0.3,2
		c1.4,10-5.2,19.7-15.1,22C34.4,53.3,32.9,53.5,31.5,53.5z"/>
	<path class="st2" d="M31.1,62.5c-5.3,0-10.5-1.5-15.2-4.3C9.4,54.1,4.8,47.8,3.1,40.3C1.3,32.8,2.6,25,6.6,18.5s10.5-11.1,18-12.9
		c9.9-2.3,20.1,0.6,27.2,8l-2.6,2.5c-6.2-6.4-15.2-9-23.9-7c-6.5,1.5-12,5.5-15.6,11.3S5,32.9,6.6,39.4c1.5,6.6,5.5,12.1,11.3,15.7
		c5.7,3.6,12.5,4.7,19.1,3.1c10-2.3,17.5-10.4,19.2-20.4l3.5,0.6c-1.9,11.5-10.5,20.7-21.9,23.3C35.5,62.3,33.3,62.5,31.1,62.5z"/>
	<g>
		<path class="st0" d="M198.4,45c-1.7,0-2.8,1.4-2.8,3.1c0,1.6,1.1,3.1,2.8,3.1c1.7,0,2.8-1.5,2.8-3.1S200.1,45,198.4,45z"/>
		<ellipse class="st0" cx="104.5" cy="48.1" rx="2.8" ry="3.1"/>
		<path class="st0" d="M115.8,46.4c0-0.7-0.5-1.2-1.4-1.2h-1.2v2.4h1.2C115.3,47.6,115.8,47.1,115.8,46.4z"/>
		<polygon class="st0" points="122.4,49 125,49 123.7,45.6 		"/>
		<path class="st0" d="M114.6,48.4h-1.5V51h1.5c1.1,0.1,1.6-0.5,1.6-1.3C116.2,49,115.7,48.4,114.6,48.4z"/>
		<path class="st0" d="M209.8,46.6c0-0.8-0.6-1.4-1.6-1.4h-1.1V48h1.1C209.2,47.9,209.8,47.4,209.8,46.6z"/>
		<path class="st0" d="M72.2,40.4v15.1h156.9V40.4H72.2z M88.9,51c0,0-1,1-3,1c-2.2,0-3.8-1.7-3.8-3.9s1.6-3.9,3.8-3.9
			c2,0,2.8,1.1,2.8,1.1L88,45.9c0,0-0.7-0.9-2.1-0.9c-1.7,0-2.8,1.4-2.8,3.1c0,1.6,1.2,3.1,2.8,3.1c1.4,0,2.1-0.6,2.1-0.6v-2h-1.9
			v-0.9h2.8V51z M97.5,52h-4.3v-7.7h0.9v6.8h3.4V52z M104.4,52c-2.2,0-3.8-1.7-3.8-3.9s1.6-3.9,3.8-3.9c2.2,0,3.8,1.7,3.8,3.9
			S106.6,52,104.4,52z M114.6,52h-2.4v-7.7h2c1.6,0,2.5,0.8,2.5,2.1c0,1-0.8,1.5-0.9,1.5c0.1,0,1.3,0.4,1.3,1.9
			C117.1,51.1,116.1,52,114.6,52z M126.2,51.9l-0.8-2.1h-3.3l-0.8,2.1h-1l3-7.6h0.9l3,7.6H126.2z M135.1,52h-4.3v-7.7h0.9v6.8h3.4
			V52z M145.6,51.9h-0.9v-7.6h0.9V51.9z M156.2,51.9h-0.9l-4.1-6.1v6.1h-0.9v-7.6h0.9l4.1,6.1v-6.1h0.9V51.9z M163,52.1l-3.2-7.8h1
			l2.2,5.6l2.2-5.6h0.9L163,52.1z M174.3,52h-4.5v-7.6h4.4v0.9h-3.5v2.3h3.2v0.9h-3.2v2.6h3.6V52z M180.5,52.2
			c-1.8,0-2.4-1.6-2.4-1.6l0.8-0.5c0,0,0.5,1.2,1.7,1.2c0.7,0,1.4-0.4,1.4-1.2c0-0.9-0.7-1.2-1.5-1.6c-1.1-0.5-2.1-1-2.1-2.3
			c0-0.9,0.7-2,2.2-2c1.4,0,2.2,1.1,2.2,1.1l-0.7,0.6c0,0-0.5-0.8-1.5-0.8c-0.8,0-1.3,0.6-1.3,1.1c0,0.8,0.7,1.1,1.7,1.6
			c1.2,0.5,1.9,1,1.9,2.3C182.9,51.3,181.9,52.2,180.5,52.2z M191.6,45.2h-2.2V52h-0.9v-6.8h-2.2v-0.9h5.3V45.2z M198.4,52
			c-2.2,0-3.8-1.7-3.8-3.9s1.6-3.9,3.8-3.9c2.2,0,3.8,1.7,3.8,3.9S200.6,52,198.4,52z M209.8,52l-2.1-3.1H207V52h-0.9v-7.7h0.1h2
			c1.5,0,2.5,0.9,2.5,2.3c0,1.8-1.6,2.1-1.9,2.2l2.1,3.2H209.8z M216.9,52.2c-1.8,0-2.4-1.6-2.4-1.6l0.8-0.5c0,0,0.5,1.2,1.7,1.2
			c0.7,0,1.4-0.4,1.4-1.2c0-0.9-0.6-1.2-1.5-1.6c-1.1-0.5-2.1-1-2.1-2.3c0-0.9,0.7-2,2.2-2c1.4,0,2.2,1.1,2.2,1.1l-0.7,0.6
			c0,0-0.5-0.8-1.5-0.8c-0.8,0-1.3,0.6-1.3,1.1c0,0.8,0.7,1.1,1.7,1.6c1.2,0.5,1.9,1,1.9,2.3C219.3,51.3,218.3,52.2,216.9,52.2z"/>
	</g>
	<g>
		<path class="st0" d="M230.4,17.8c-1.7,0-3.1-1.4-3.1-3.1s1.4-3.1,3.1-3.1s3.1,1.4,3.1,3.1S232.1,17.8,230.4,17.8z M230.4,11.9
			c-1.5,0-2.7,1.2-2.7,2.7s1.2,2.7,2.7,2.7s2.7-1.2,2.7-2.7C233.1,13.2,231.9,11.9,230.4,11.9z"/>
		<path class="st0" d="M230.8,14.4L230.8,14.4c0.4,0.1,0.7,0.3,0.7,0.9c0,0.5,0.1,0.7,0.3,0.7c0.1,0,0.1-0.1,0.2-0.1l0,0l0,0
			c0,0,0,0,0,0.1c-0.1,0.2-0.2,0.3-0.4,0.3c-0.5,0-0.6-0.4-0.6-0.8c0-0.6-0.1-0.8-0.6-0.8h-0.3v0.9c0,0.4,0,0.4,0.1,0.4h0.3l0,0v0.1
			l0,0h-1.3l0,0V16l0,0h0.3c0.1,0,0.1,0,0.1-0.4v-2.2c0-0.4,0-0.4-0.1-0.4h-0.3l0,0v-0.1l0,0h1.3c0.7,0,1.3,0.2,1.3,0.8
			C231.7,14.1,231.3,14.3,230.8,14.4z M230.4,13.1H230v1.3h0.3c0.5,0,0.7-0.2,0.7-0.7C231.1,13.2,230.8,13.1,230.4,13.1z"/>
	</g>
	<g id="guides" class="st3">
	</g>
</g>
</svg>
