<?xml version="1.0" encoding="UTF-8"?>
<svg id="Camada_1" data-name="Camada 1" xmlns="http://www.w3.org/2000/svg" version="1.1" viewBox="0 0 1169 422">
  <defs>
    <style>
      .cls-1 {
        fill: #898a8d;
      }

      .cls-1, .cls-2 {
        stroke-width: 0px;
      }

      .cls-2 {
        fill: #4b688e;
      }
    </style>
  </defs>
  <polygon class="cls-1" points="526.3 58.3 526.3 153.6 448.4 153.6 448.4 58.3 383.3 58.3 383.3 301.4 448.4 301.4 448.4 206.1 526.3 206.1 526.3 301.4 591.5 301.4 591.5 58.3 526.3 58.3"/>
  <polygon class="cls-1" points="808.3 58.7 761.8 201.3 717.3 58.3 623.5 58.3 623.5 301.4 688.7 301.4 688.7 159.2 731.6 293.5 785.6 293.5 839.7 156 839.7 301.4 904.8 301.4 904.8 58.3 808.3 58.7"/>
  <path class="cls-1" d="M1073.7,256.6c-46.7,0-84.6-33.1-84.6-73.9s37.9-73.9,84.6-73.9,29.4,3.5,41.7,9.6v-58.9c-12.2-2.8-24.9-4.4-38.1-4.4-109.7,0-155,60.7-155,131.1s45.3,124,155,124,22.6-1.2,33.4-3.3v-57.8c-11.2,4.8-23.7,7.5-36.9,7.5"/>
  <path class="cls-2" d="M315.8,212.6v89.5c0,16.1-13.1,29.2-29.2,29.2H118.2c-2.8,0-5.5-.4-8.1-1.2l172.3-174.6v57h33.4v-118.6h-113.4v-35.4h-84.2c-35.7,0-64.7,29-64.7,64.7v178.8c0,35.6,29,64.7,64.7,64.7h168.4c35.7,0,64.7-29,64.7-64.7v-89.5h-35.4ZM89,123.3c0-16.1,13.1-29.2,29.2-29.2h84.2v35.4h56l-169.4,171.7V123.3Z"/>
  <path class="cls-2" d="M404.7,354.7l6.2,2c-1,3.5-2.5,6-4.8,7.7s-5,2.5-8.4,2.5-7.7-1.4-10.4-4.3c-2.7-2.9-4.1-6.8-4.1-11.8s1.4-9.4,4.1-12.3c2.7-2.9,6.3-4.4,10.8-4.4s7,1.1,9.5,3.4c1.4,1.4,2.5,3.3,3.3,5.8l-6.4,1.5c-.4-1.6-1.2-2.9-2.3-3.9-1.2-.9-2.6-1.4-4.3-1.4s-4.3.8-5.7,2.5c-1.5,1.7-2.2,4.4-2.2,8.2s.7,6.9,2.2,8.6c1.4,1.7,3.3,2.6,5.6,2.6s3.2-.5,4.4-1.6c1.2-1.1,2.1-2.8,2.6-5.1"/>
  <path class="cls-2" d="M537.5,366.3h-7l-2.8-7.2h-12.7l-2.6,7.2h-6.8l12.4-31.8h6.8l12.7,31.8ZM525.7,353.8l-4.4-11.8-4.3,11.8h8.7Z"/>
  <path class="cls-2" d="M632.2,366.3v-31.8h10.3c3.9,0,6.4.2,7.6.5,1.8.5,3.3,1.5,4.6,3.1,1.2,1.6,1.8,3.7,1.8,6.2s-.4,3.6-1.1,4.9c-.7,1.3-1.6,2.4-2.7,3.1-1.1.8-2.2,1.3-3.3,1.5-1.5.3-3.7.5-6.6.5h-4.2v12h-6.4ZM638.6,339.9v9h3.5c2.5,0,4.2-.2,5.1-.5.9-.3,1.5-.9,2-1.6.5-.7.7-1.5.7-2.5s-.3-2.1-1-2.9c-.7-.8-1.5-1.2-2.6-1.4-.8-.1-2.3-.2-4.6-.2h-3.1Z"/>
  <rect class="cls-2" x="751.2" y="334.6" width="6.4" height="31.8"/>
  <polygon class="cls-2" points="861.7 366.3 861.7 339.9 852.2 339.9 852.2 334.6 877.5 334.6 877.5 339.9 868.1 339.9 868.1 366.3 861.7 366.3"/>
  <path class="cls-2" d="M1004,366.3h-7l-2.8-7.2h-12.7l-2.6,7.2h-6.8l12.4-31.8h6.8l12.7,31.8ZM992.2,353.8l-4.4-11.8-4.3,11.8h8.7Z"/>
  <polygon class="cls-2" points="1079.9 366.3 1079.9 334.8 1086.3 334.8 1086.3 361 1102.3 361 1102.3 366.3 1079.9 366.3"/>
</svg>