<?xml version="1.0" encoding="utf-8"?>
<!-- Generator: Adobe Illustrator 28.1.0, SVG Export Plug-In . SVG Version: 6.00 Build 0)  -->
<svg version="1.1"
	 id="SVGRoot" xmlns:cc="http://creativecommons.org/ns#" xmlns:dc="http://purl.org/dc/elements/1.1/" xmlns:rdf="http://www.w3.org/1999/02/22-rdf-syntax-ns#"
	 xmlns="http://www.w3.org/2000/svg" xmlns:xlink="http://www.w3.org/1999/xlink" x="0px" y="0px" viewBox="0 0 500 139"
	 style="enable-background:new 0 0 500 139;" xml:space="preserve">
<style type="text/css">
	.st0{fill:#FFFFFF;}
	.st1{fill:#A39161;}
</style>
<path class="st0" d="M55.8,70.7l2.1-1.6c0,0-0.9-0.2-1.9-0.7c0,0-0.9-0.2-0.9,0C54.9,68.8,55.1,70,55.8,70.7"/>
<rect x="-0.1" class="st1" width="139" height="139"/>
<g>
	<path class="st0" d="M94.2,115.6v-0.9h0.9c0.2,0,0.5,0.2,0.5,0.5c0,0.2-0.2,0.5-0.7,0.5h-0.7 M93.8,117.4h0.5V116h0.2
		c0.5,0,0.5,0.2,0.9,0.9l0.2,0.5h0.7l-0.5-0.7c-0.2-0.5-0.5-0.7-0.7-0.7c0.5,0,0.9-0.5,0.9-0.9c0-0.2-0.2-0.9-1.2-0.9h-1.4
		L93.8,117.4z M97.4,115.8c0,1.4-1.2,2.5-2.5,2.5c-1.2-0.2-2.3-1.2-2.3-2.5s1.2-2.5,2.5-2.5C96.6,113.3,97.4,114.4,97.4,115.8
		 M97.9,115.8c0-1.6-1.4-3-3-3s-3,1.4-3,3s1.4,3,3,3C96.8,118.6,97.9,117.4,97.9,115.8"/>
	<path class="st0" d="M76.4,114.7c-0.2-1.6-1.6-3.7-3.9-5.8c-2.1-1.9-2.1-5.3-2.1-6.3H58.6c-0.9,1.2-1.6,2.8-5.3,4.9
		c-4.9,2.5-6.5,3.5-7.6,7.2L76.4,114.7"/>
	<path class="st0" d="M74.4,108.9c3.2,2.5,4.4,4.2,5.1,5.8h9.3c-0.9-3.5-3-4.6-7.6-7.4c-3.5-2.1-4.6-3.7-5.3-4.6H72
		C71.8,103.3,71.8,106.8,74.4,108.9"/>
	<rect x="71.8" y="91.5" class="st0" width="3.5" height="5.8"/>
	<rect x="58.8" y="91.5" class="st0" width="11.3" height="5.8"/>
	<path class="st0" d="M80.6,84.8c0-0.9-0.7-1.4-1.6-1.4H55.3c-0.9,0-1.6,0.5-1.6,1.4s0.7,1.4,1.6,1.4h23.4
		C79.7,86.2,80.6,85.7,80.6,84.8"/>
	<path class="st0" d="M75.9,87.6H58.3c-0.9,0-1.6,0.7-1.6,1.4c0,0.7,0.7,1.4,1.6,1.4h17.6c0.9,0,1.6-0.7,1.6-1.4
		C77.6,88,76.9,87.6,75.9,87.6"/>
	<path class="st0" d="M75.9,98.5H58.3c-0.9,0-1.6,0.7-1.6,1.4s0.7,1.4,1.6,1.4h17.6c0.9,0,1.6-0.7,1.6-1.4
		C77.6,99.1,76.9,98.5,75.9,98.5"/>
	<path class="st0" d="M90.6,117.2c0-0.7-0.7-1.4-1.6-1.4H45.1c-0.9,0-1.6,0.7-1.6,1.4s0.7,1.4,1.6,1.4h43.8
		C89.9,118.6,90.6,118.1,90.6,117.2"/>
	<path class="st0" d="M77.4,27.1c-5.1-3.5-10.7-5.8-16.7-6.7c-0.2,0-0.2,0.2-0.5,0.5c0.2,2.3,0.5,4.4,0.7,6.5
		c-0.9,0.2-1.9-0.2-2.5-0.5c-0.2-0.2-0.7-0.2-1.2-0.2s-0.5,0.5-0.5,0.9c0.2,2.5,3,4.6,5.3,5.1c-0.2,0.2-1.2,0.2-2.3-0.2
		c-1.9-0.9-3.7,1.2-4.2,1.6c-3.5,2.8-5.1,6.5-8.1,9.7L46.2,45c-0.5,0.5-0.9,0.9-1.2,1.4c-1.6,1.9-3.5,3.7-4.2,6V54
		c0.2,1.2,1.2,2.1,2.1,3c0.5,0.5,1.2-0.5,1.6,0.5c0,0,0.5,0.5,1.4,0c2.8-1.4,5.3-3.2,8.6-3.5c4.4,0.2,8.6-1.6,10.4-5.8h0.2
		c-0.2,2.5-2.5,4.4-4.9,5.6c-1.6,0.7-1.9,1.9-1.9,1.9C56,61,54.6,65,51.1,70.1c-0.9,1.6-0.7,3.5,0,5.1c0.9,2.3,1.6,4.6,3,6.7h25.2
		c3.5-5.3,6-11.1,7.9-17.4C91.4,51.4,89.4,35.7,77.4,27.1 M57.7,41c0,0-0.7,1.6-2.5,1.2c-1.9-0.5-0.7-2.5-0.7-2.5s1.2,0,3.2,0.9h0.5
		c0,0-0.7-1.9-3.7-1.6c0,0-0.9-0.7-0.5-1.9c0,0,2.3,0.7,3,1.2c0.7,0.2,2.1,1.2,2.5,2.8L57.7,41z M60.4,81.1c-0.2,0.5-1.6,0-2.3-0.5
		s-1.9-0.9-3-2.5c-1.2-1.6-1.4-2.8-1.9-3.9v-0.5c0.2,0,0.2,0,0.2,0.2s1.2,2.1,2.5,3c0,0,1.4,1.4,2.8,2.3
		C60.2,80.4,60.7,80.9,60.4,81.1 M87.8,55.1l-5.1,0.7c0,0,0,1.6-0.2,2.1l5.1,0.7v0.7l-5.1,0.2l-0.2,2.1l4.6,1.6v0.5l-5.1-0.2
		l-0.7,2.1l4.6,1.4l-0.2,0.5l-4.9-0.2l-0.5,1.4l4.2,2.1l-0.2,0.5l-4.4-0.9c0,0-0.2,1.2-0.5,1.6l3.5,2.1l-0.2,0.5l-3.9-1.2
		c0,0-0.5,1.2-0.7,1.4l3.2,2.3l-0.2,0.5l-3.5-1.4l-0.9,1.4l2.5,2.3l-0.2,0.2l-3.2-1.2l-0.9,1.4l2.1,1.9l-0.2,0.2l-2.3-0.9l-0.9,1.2
		H72c0,0,8.1-9.7,9-25.7c0,0,1.6-14.4-9.3-22.9c0,0-2.3-1.9-3.7-2.5c0,0-0.7-0.2-1.2-0.9c-0.5-0.7-2.3-2.1-5.3-2.1l1.6-5.6l0.7,0.2
		l-0.2,4.6c0,0,1.4,0.2,1.9,0.5l1.9-4.2l0.7,0.2l-1.2,4.4l1.6,0.9l2.5-4.2l0.7,0.2l-1.9,4.6l1.4,0.9l3.5-3.9l0.5,0.5l-2.5,4.9
		l1.4,1.4l4.4-3.7l0.5,0.5l-3.7,4.6l1.2,1.4l4.9-4.2l0.5,0.5l-4.4,4.2c0,0,0.9,1.2,1.4,1.9l5.6-2.3l0.2,0.5l-5.1,3.2
		c0,0,0.7,1.2,1.2,2.1l5.8-1.4l0.2,0.5l-5.3,2.3c0,0,0.7,1.6,0.9,2.5l5.6-0.7v0.7l-5.1,1.6c0,0,0.2,0.5,0.5,2.3l5.1-0.2V51l-5.1,1.2
		v2.3l5.1,0.5L87.8,55.1z"/>
</g>
<g>
	<polygon points="211.7,58.2 208.4,58.2 208.4,81.3 222.3,81.3 222.3,78.5 211.7,78.5 	"/>
	<g>
		<path d="M230.8,69.5c0,6.3,4.9,12,12.5,12c7.9,0,12.5-5.6,12.5-12c0-6.5-4.9-12-12.5-12C235.9,57.5,230.8,63,230.8,69.5
			 M234.3,69.5c0-5.1,3.9-8.8,9-8.8s9,3.7,9,8.8c0,5.1-3.9,8.8-9,8.8S234.3,74.6,234.3,69.5"/>
		<path d="M267,58.2v23.2h3.2V71.2h1.4c1.6,0,3,0.5,6.3,5.3l3,4.9h3.9c-1.6-2.3-2.1-3-3.2-4.6c-1.9-2.8-3-5.1-5.1-6.5
			c2.5-0.9,3.9-3,3.9-5.8c0-3.9-3-6.5-7.6-6.5H267V58.2z M270.2,60.9h2.1c3.2,0,4.6,1.4,4.6,3.5c0,1.9-0.9,3.7-4.6,3.7h-2.1V60.9z"
			/>
		<path d="M294.3,81.6h9c7.6,0,12.3-5.6,12.3-11.6c0-5.6-3.7-11.6-12.3-11.6h-9V81.6z M297.5,61.2h5.1c6.5,0,9.5,3.9,9.5,8.6
			c0,2.8-1.9,8.6-9.3,8.6h-5.3L297.5,61.2L297.5,61.2z"/>
		<path d="M344.5,63.3l3.7,8.3H341L344.5,63.3z M343.5,58.2l-10,23.4h3.5l3-6.9h10l3,6.9h3.5l-10.4-23.4H343.5z"/>
		<path d="M369,71.1h3.9c3.5,0,5.1,1.4,5.1,3.7c0,1.9-1.2,3.7-4.9,3.7h-4.2v-7.4H369z M365.6,81.5h7.9c5.8,0,7.9-3.2,7.9-6.3
			c0-3.2-2.1-5.3-5.6-6c2.3-0.9,3.5-2.5,3.5-4.9c0-3-2.1-6-7.2-6h-6.7v23.2L365.6,81.5z M369,61.2h3c3,0,3.9,1.4,3.9,3.2
			c0,2.5-1.6,3.7-4.9,3.7h-2.3v-6.9L369,61.2L369,61.2z"/>
		<path d="M395,71.1h3.9c3.5,0,5.1,1.4,5.1,3.7c0,1.9-1.2,3.7-4.9,3.7H395V71.1z M391.6,81.5h7.9c5.8,0,7.9-3.2,7.9-6.3
			c0-3.2-2.1-5.3-5.6-6c2.3-0.9,3.5-2.5,3.5-4.9c0-3-2.1-6-7.2-6h-6.7v23.2L391.6,81.5z M395,61.2h3c3,0,4.2,1.4,4.2,3.2
			c0,2.5-1.6,3.7-4.9,3.7H395V61.2z"/>
	</g>
	<polygon points="421,71.1 430.5,71.1 430.5,68.1 421,68.1 421,61.2 430.8,61.2 430.8,58.2 417.5,58.2 417.5,81.3 431.2,81.3 
		431.2,78.5 421,78.5 	"/>
	<polygon points="439.5,61.2 447.6,61.2 447.6,81.3 451,81.3 451,61.2 459,61.2 459,58.2 439.5,58.2 	"/>
	<polygon points="466.8,61.2 475,61.2 475,81.3 478.2,81.3 478.2,61.2 486.3,61.2 486.3,58.2 466.8,58.2 	"/>
	<path d="M491,60.7v-0.9h0.9c0.2,0,0.5,0.2,0.5,0.5c0,0.2-0.2,0.5-0.7,0.5H491 M490.5,62.6h0.5v-1.4h0.2c0.5,0,0.5,0.2,0.9,0.9
		l0.2,0.5h0.7l-0.5-0.7c-0.2-0.5-0.5-0.7-0.7-0.7c0.5,0,0.9-0.5,0.9-0.9c0-0.2-0.2-0.9-1.2-0.9h-1.4v3.2H490.5z M494.2,60.9
		c0,1.4-1.2,2.5-2.5,2.5c-1.2-0.2-2.3-1.2-2.3-2.5c0-1.4,1.2-2.5,2.5-2.5S494.2,59.5,494.2,60.9 M494.6,60.9c0-1.6-1.4-3-3-3
		s-3,1.4-3,3s1.4,3,3,3C493.5,63.7,494.6,62.6,494.6,60.9"/>
</g>
</svg>
