<?xml version="1.0" encoding="UTF-8"?>
<svg id="Camada_1" data-name="Camada 1" xmlns="http://www.w3.org/2000/svg" version="1.1" viewBox="0 0 945 945">
  <defs>
    <style>
      .cls-1 {
        fill: #003e6b;
        stroke-width: 0px;
      }
    </style>
  </defs>
  <g id="Page-1">
    <g id="v-copy-5">
      <g id="cs-logo_man" data-name="cs-logo man">
        <path id="Shape" class="cls-1" d="M417.1,523l-103.5-139.6v139.6h-173.3V99.4h226.3l105.9,142,105.9-142h226.3v423.6h-173.3v-139.6l-103.5,139.6h-110.7ZM585.6,732.5h0c-4.8,4.8-14.4,7.2-21.7,9.6-40.9,7.2-93.9,7.2-93.9,45.7s21.7,38.5,45.7,38.5c38.5,0,69.8-24.1,69.8-62.6v-31.3h0ZM597.7,840.8c-2.4,0-7.2-2.4-9.6-2.4-2.4-2.4-2.4-4.8-2.4-9.6v-14.4c-19.3,21.7-33.7,31.3-72.2,31.3s-67.4-16.8-67.4-57.8,55.4-60.2,108.3-65c19.3-2.4,31.3-7.2,31.3-28.9s-28.9-36.1-57.8-36.1-57.8,14.4-60.2,45.7h-12s-14.4,0-9.6-14.4c7.2-36.1,43.3-50.5,86.7-50.5s79.4,9.6,79.4,62.6v103.5c0,24.1,2.4,36.1,2.4,36.1h-16.8ZM653,645.8h12v21.7h0c14.4-21.7,45.7-26.5,62.6-26.5,57.8,0,77,40.9,77,74.6v113.1c0,7.2-4.8,12-12,12h-12v-122.8c0-33.7-14.4-55.4-53-55.4s-60.2,26.5-60.2,65v113.1h-12c-2.4,0-7.2-2.4-9.6-2.4s-2.4-4.8-2.4-9.6v-170.9c-2.4-7.2,2.4-12,9.6-12h0ZM378.6,588c2.4-4.8,7.2-7.2,12-7.2h14.4c7.2,0,12,4.8,12,12v235.9c0,2.4-2.4,7.2-2.4,9.6-2.4,2.4-4.8,2.4-9.6,2.4h-12v-223.9l-98.7,223.9h-28.9l-101.1-223.9v223.9h-12c-2.4,0-7.2-2.4-9.6-2.4s-2.4-4.8-2.4-9.6v-235.9c0-7.2,4.8-12,12-12h14.4c4.8,0,9.6,2.4,12,7.2l98.7,223.9,101.1-223.9h0Z"/>
      </g>
    </g>
  </g>
</svg>