<?xml version="1.0" encoding="utf-8"?>
<!-- Generator: Adobe Illustrator 28.2.0, SVG Export Plug-In . SVG Version: 6.00 Build 0)  -->
<svg version="1.1"
	 id="SVGRoot" xmlns:dc="http://purl.org/dc/elements/1.1/" xmlns:rdf="http://www.w3.org/1999/02/22-rdf-syntax-ns#" xmlns:cc="http://creativecommons.org/ns#"
	 xmlns="http://www.w3.org/2000/svg" xmlns:xlink="http://www.w3.org/1999/xlink" x="0px" y="0px" viewBox="0 0 500 128"
	 style="enable-background:new 0 0 500 128;" xml:space="preserve">
<style type="text/css">
	.st0{fill:#0A8354;}
</style>
<path class="st0" d="M68.2,79.8c-0.4,0.3,1.5,0.8,0.5,1.1c-0.9,0.4-1.5,1.7-1.5,1.7s-3-1.1-2.4-1.7c0.4-0.4-2-2.5-1.7-2.9
	c0.3-0.5,3.4,0.4,3.5,1C66.8,79.4,68.5,79.6,68.2,79.8 M80.3,82.9l-0.9-2.7c-0.3-1-0.7-2,0.4-3.1c0.9-0.9,2.3-0.9,3.1-0.3
	c1.6,1.1,1.1,3.6-0.1,5.3c0,0,0.4,0.4,0.2,0.7c-0.3,0.5-0.7,1.8-1.2,2c-0.5,0.2-1.1,1-1.2,1.5C80.3,87.4,80.8,84.3,80.3,82.9
	 M84.1,74.1c0.7,0.7,2.7,0.4,3.7,0.2c1-0.1,0.8,1.3,0.7,2.2c-0.1,1-1.5,2-1.5,2l-0.5-0.3c-0.4,0.4-0.8,0.3-1.1,0.1
	c-0.2-0.1-0.4-0.4-0.4-0.5c-0.3-0.7-1-1.4-1.4-1.7c-0.8-0.6-1.7-0.9-2.7-0.9C80.9,75.3,83.4,73.4,84.1,74.1 M80.9,115.2
	c2.6-0.4,6.4,1.7,10.2,1.3c3.8-0.4,2.3-1.2,2.3-1.2s-3.4-0.6-5.5-4c-2.1-3.4-1.8-13.8-0.9-15.9c0.9-2.1,3.7-3.4,3.7-3.4
	s3.7,0.9,4.9,0.6l4.3,0.9c0,0-0.3,1.8,1.2,2.5c1.5,0.6,4.3,1.2,6.1,0.6c1.8-0.6,0.9-2.1,2.5-2.1c1.5,0,2.5,2.5,4,3.4
	c1.5,0.9,1.2-0.3,3.1,0.9c1.8,1.2,3.7,2.1,5.2,0.9c1.5-1.2,0.9-1.8,1.5-3.1c0.6-1.2,2.8-2.1,2.5-3.4c-0.3-1.2-1.5-2.1-0.9-3.7
	c0.6-1.5,2.1-3.7,2.1-3.7s2.8,0,4-0.6c1.2-0.6,2.1-0.3,0.9-1.8c-1.2-1.5-1.8-3.1-1.8-3.1s2.1-1.5,1.8-2.8c-0.3-1.2,0-0.9,1.2-2.1
	c1.2-1.2-0.3-1.8-0.3-3.7c0-1.8,0.3-2.8,1.2-3.4c0.9-0.6,0.3-1.8,2.1-2.1c1.8-0.3,1.7-1.3,2.3-2.5c0.6-1.2-1.1-3-2.6-3.9
	c-1.5-0.9,0-2.1-2.1-2.5c-2.1-0.3-2.8,1.8-2.8,0c0-1.8,0.6-3.7,0.6-3.7s0.3-0.6-1.5-2.1c-1.8-1.5-1.5-1.8-3.1-1.8
	c-1.5,0-3.4,0.3-4.3-1.2c-0.9-1.5,1.8-1.2,0.6-2.8c-1.2-1.5-2.1-1.2-3.1-2.8c-0.9-1.5,0-2.8-1.5-3.4c-1.5-0.6-1.5-0.6-3.7,0
	c-2.1,0.6-3.1,1.2-2.8-0.3c0.3-1.5,0.9-1.2,0.9-2.8c0-1.5,1.2-1.8,0.6-3.7c-0.6-1.8-1.2-2.1-1.2-3.4s-0.3-0.3-1.2-1.5
	c-0.9-1.2,0.6-2.1-1.2-2.8c-1.8-0.6-4,0.6-4.6-0.6c-0.6-1.2-0.6-1.8-1.8-2.8c-1.2-0.9-1.8,0-3.1-1.5c-1.2-1.5-1.8-0.6-2.8-1.8
	c-0.9-1.2,0.3-0.6-0.9-2.1c-1.2-1.5-1.8-0.9-3.4-1.8c-1.5-0.9-1.5-2.5-3.4-2.1c-1.8,0.3-2.1,0.3-2.1,1.8c0,1.5-1.5,2.5,0.3,3.1
	c1.8,0.6,3.1,1.8,1.5,1.8c-1.5,0-1.5-0.3-2.8-0.9c-1.2-0.6-2.1-1.5-3.7-2.1c-1.5-0.6-0.6,1.8-2.8,0.9c-2.1-0.9-0.9-1.2-2.5-2.5
	c-1.5-1.2-1.2-1.5-3.1-2.1c-1.8-0.6-1.8-1.2-3.7-0.3c-1.8,0.9-0.9,0.6-3.1,1.2c-2.1,0.6-3.1,0.3-2.5,1.8c0.6,1.5,0.9,2.1-0.6,3.1
	C64,19,65,20.9,63.7,20.3c-1.2-0.6-2.1,0.3-2.8-1.5c-0.6-1.8,0.5-2-0.3-2.8c-1.1-1.1-1.5,1.5-3.7,1.8c-2.1,0.3-0.9,0.6-2.1,1.8
	c-1.2,1.2,3.1,1.5-0.6,3.1c-3.7,1.5-3.4,0-4.6,1.5c-1.2,1.5-0.6,1.8-2.5,2.5c-1.8,0.6-1.2-0.3-3.1,1.5c-1.8,1.8-2.8,1.5-2.8,3.4
	c0,1.8,1.2,1.8-0.3,3.1c-1.5,1.2-1.2,2.1-0.3,3.7c0.9,1.5,3.1,4,0.6,3.1c-2.5-0.9-3.1-1.8-3.4-0.6c-0.3,1.2-1.5,0.9-2.1,3.1
	c-0.6,2.1,0,0.6,0.3,2.8c0.3,2.1,2,1.9-1.7,2.5c-1.8,0.3-0.7,1.2-2.9,1.8c-2.1,0.6-3.4,0-3.7,1.5c-0.3,1.5,0.9,2.5-0.6,3.4
	c-1.5,0.9-1.2,1.2-2.1,3.1c-0.9,1.8-2.5,2.8-2.5,4.6c0,1.8,1.8,2.1,0.3,4c-1.5,1.8-1.5,1.8-0.3,3.7c1.2,1.8,2.8,2.1,2.8,4
	c0,1.8-0.6,2.8,0.6,4.3c1.2,1.5,4.3,2.1,2.5,3.7c-1.8,1.5-0.9,0.9-2.8,2.1c-1.8,1.2-3.4,0.3-2.1,2.5c1.2,2.1,2.5,0.9,2.5,3.4
	c0,2.5,0.9,2.5,3.1,3.4c2.1,0.9,2.8,4,4.3,3.1c1.5-0.9,1.5-1.5,2.8,0.6c1.2,2.1,2.1,4,3.1,2.1c0.9-1.8,1.5-1.5,2.8-2.1
	c1.2-0.6,0-1.2,2.1-1.2c2.1,0,2.1,1.2,3.7,0.3c1.5-0.9,0.3-2.1,2.1-1.8c1.8,0.3,2.1,0.3,2.5,1.5c0.3,1.2,0,1.9,1.9,1.9
	c1.8,0,2.4-2.5,2.7-1c0.3,1.5,1.8,3.1,3.1,2.8c1.2-0.3,2.5,0.9,2.1-1.2c-0.3-2.1,1-1.2,1.3-2.7c0.3-1.5,0-2.4,0.9-3.5
	c1.1-1.3,4-1.4,4-1.4s3.4-0.6,5.8,2.5c2.5,3.1,2.7,6,2.8,10.1c0,2.7,0.2,4.4-1.1,6.7c-1.2,2.2-4.8,4.2-4.8,4.2s-1.4,1.2,1,1.2
	C74,116.5,79.7,115.4,80.9,115.2 M67.8,88.7c-0.5-0.3-1.5,0.8-2.9,0.4c-1.3-0.3-1.6-0.6-2.1,0.1c-1.3,1.8-2,0.2-2.5,0
	c-0.8-0.7,0.9-1.7,2.6-2.5c1.2-0.6,0.4-3,1.9-3c0.6,0,0.4,1.4,1.7,0.8c1.1-0.5,0.6,1.7,0.6,1.7l0.4,0.3c0.4-0.3,0.8-0.4,1.1-0.1
	c0.5,0.3,0.9,1.6,2,2.4c0.3,0.2,0.6,0.4,0.9,0.5C72,89.5,69.4,89.6,67.8,88.7 M75.1,82.2l0.7,2.4c0.4,1.1,0.6,2.1-0.5,3.2
	c-1.2,1.1-2.7,1.1-3.8,0.3c-1.7-1.3-1-3.9,0.4-5.7c0,0-0.8-2-0.7-2.5c0.2-0.5,1-2.6,1.6-1.4C73.5,79.8,74.5,80.3,75.1,82.2
	 M88.4,80.1c-0.4,0.4-0.8,0.3-1.3,1.4c-0.5,1.1-1.2,2.7-1.2,2.7s1.9-0.5,2.7-1.2c0.5-0.5,1.5-1.3,2.1-1.6c0.6-0.3,1.1-1.1,0.4-1.5
	c-0.7-0.4-0.8,0.6-1.5,0.4C89.2,80.2,88.8,79.8,88.4,80.1 M94.8,88.5c3.2,0.4,3.7,1.9,5.3,1.6c1.5-0.3,4.9-1.7,3.1-1.5
	c-2.8,0.3-4.8-2.5-4.8-2.5C97,88,94.8,88.5,94.8,88.5 M88.9,89.2c1.9-1.6,4.9-2.5,6-2.5c1.1,0,5.1-2.4,1.5-2.6
	c-1.4-0.1-1.1-2.6-2.5-2.6c-1.4,0-1.6,1.5-2.6,2.4c-0.9,0.8-1.6,1-2.5,2c-0.8,0.9-0.9,2-0.7,2.4C88.5,89.5,88.5,88.1,88.9,89.2
	 M0,64C0,28.7,35.9,0,80.3,0c44.3,0,80.3,28.7,80.3,64s-35.9,64-80.3,64C36,128,0,99.4,0,64"/>
<path d="M219.5,71.8c-1.1,2.8-2.8,5-4.9,6.4c-2.1,1.4-4.6,2.2-7.4,2.2c-4.2,0-7.7-1.6-10.5-4.7c-2.8-3.2-4.2-8-4.2-14.4
	c0-3.3,0.5-6.4,1.6-9.3c1.1-2.8,2.7-5,4.9-6.5c2.2-1.5,4.8-2.2,7.6-2.2c2.6,0,4.9,0.6,7,1.8c2.1,1.2,3.8,3.3,5.2,6.1
	c1.4,2.9,2.1,6.5,2.1,10.9C221.1,65.7,220.6,68.9,219.5,71.8 M222.8,45.3c-3.7-3.7-8.7-5.6-14.9-5.6c-6.6,0-12.1,2.1-16.4,6.3
	c-4.2,4.2-6.4,9.7-6.4,16.2c0,7,1.9,12.4,5.6,16.2c3.7,3.8,8.7,5.8,15.1,5.8c6.7,0,12.2-2.1,16.3-6.3c4.1-4.2,6.2-10,6.2-17.2
	C228.4,54.2,226.5,49,222.8,45.3"/>
<path d="M249.9,66c0,0-4.4-0.1-4.7-0.1c0.1-0.3,2.7-6.5,2.7-6.5s3.3-7.8,3.4-8.2c0.2,0.4,6.1,14.4,6.2,14.7
	C257.3,65.9,249.9,66,249.9,66 M274.7,79.7L274.7,79.7c-3.3-1-3.9-1.2-4-1.3c0,0-0.8-0.9-0.8-0.9c0,0-6.5-14.2-6.5-14.2
	c-3.7-8.2-6.8-15.6-9.3-22.1l-0.1-0.3l-2.5-0.1c-0.1,0.1-8,18.3-8,18.3c-4.3,10-7.1,16-8.1,17.8c-0.5,0.8-0.9,1.3-1.3,1.6
	c-0.6,0.4-1.7,0.8-3.3,1.2c0,0-0.4,0.1-0.4,0.1l-0.1,2.7v0.1l7-0.3l7.2,0.3c0.1-0.1,0.1-0.6,0.1-0.6v-2c-0.1-0.1-1.3-0.5-1.3-0.5
	c-2.6-0.6-3-0.7-3.1-0.8c0,0,0-0.1,0-0.2c0-0.2,0.1-0.7,0.6-1.9c0,0,2.8-6.8,2.8-6.8c0,0.1,7.3,0,7.3,0s8.4,0,8.4,0c0,0,0,0,0,0
	c0,0.2,2.6,6.5,2.6,6.5c0.5,1.2,0.5,1.6,0.5,1.8c0,0.1,0,0.3-0.3,0.5c-0.1,0.1-0.6,0.4-3.7,1l-0.4,0.1l-0.1,2.6c0.1,0.1,9-0.2,9-0.2
	l8,0.3c0.1-0.1,0.1-0.6,0.1-0.6v-2C275,79.8,274.7,79.7,274.7,79.7"/>
<path d="M280.7,42v2c0.1,0.1,1.7,0.4,1.7,0.4c2.9,0.5,4,0.9,4.4,1.1c-0.1-0.1,0.2,0.2,0.2,0.2c0,0,0.1,0.3,0.1,2.1
	c0,0,0.1,15.3,0.1,15.3L287,76.8c0,1.4-0.3,1.6-0.3,1.7c-0.1,0.1-0.7,0.5-4.1,1c0,0-1.8,0.4-1.8,0.4c-0.1,0.1-0.1,0.5-0.1,0.5v2.2
	c0.1,0.1,10.1-0.2,10.1-0.2l9.1,0.3c0.1-0.1,0.1-0.6,0.1-0.6v-2c-0.1-0.1-0.5-0.2-0.5-0.2c-1.3-0.2-4.5-0.9-5-1.1
	c-0.5-0.2-0.7-0.3-0.7-0.5c0-0.1-0.2-0.4-0.2-1.7c0,0-0.1-11.7-0.1-13c0.3,0.3,3.1,3,3.1,3c6.5,6.1,10.6,10.2,12,11.8
	c0,0,0.4,0.6,0.4,0.6l-0.2,0.2c-0.1,0-0.5,0.2-2.8,0.8l-0.4,0.1l-0.1,2.6c0.1,0.1,10.4-0.2,10.4-0.2l9.4,0.3
	c0.1-0.1,0.1-0.6,0.1-0.6v-2c-0.1-0.1-0.5-0.2-0.5-0.2c-3.4-0.7-5.4-1.2-6.1-1.5c0,0-0.3-0.2-1.8-1c0,0-9-8.3-9-8.3
	c-3.9-3.7-6.9-6.5-8.8-8.5c0.1,0,3.1-2.6,3.1-2.6c0,0,7.7-7,7.7-7c0,0,0.1-0.1,5-4.7c0,0,0,0,0,0c0.1,0,0.4-0.2,1.3-0.7
	c0.3-0.1,1.3-0.5,4.6-1.2l0.4-0.1l0.1-2.6c-0.1-0.1-9,0.2-9,0.2l-7.4-0.3c-0.1,0.1-0.1,0.6-0.1,0.6v2c0.1,0.1,1.1,0.4,1.1,0.4
	c2.3,0.5,2.7,0.7,2.8,0.8c0,0,0,0.1,0,0.1c0,0.3-0.2,0.9-1.7,2.4c-4.4,4.5-9,8.8-13.6,12.6c0-0.5,0.1-8.7,0.1-8.7
	c0.1-4.8,0.2-5.5,0.2-5.6c-0.1,0.1,0.4-0.5,0.4-0.5c0,0,0.4-0.2,4.1-0.9c0,0,1.6-0.3,1.6-0.3l0.1-2.6c-0.1-0.1-8.3,0.2-8.3,0.2
	c0,0-1.8,0-1.8,0l-9.1-0.3C280.7,41.5,280.7,42,280.7,42"/>
<path d="M329.7,42l-1,11.6l0.6,0h2.6c0.1-0.1,0.2-0.4,0.2-0.4c0.6-2.7,1.1-4.5,1.4-5.2c0.4-0.9,0.8-1.5,1.2-1.7
	c0.1-0.1,0.6-0.3,1.8-0.3l1.2,0h6.2c0,0,0,1.4,0,3.3c0,3.8,0,9.5,0,9.5L343.8,72c-0.1,5.4-0.2,6-0.2,6.1c0,0-0.2,0.4-0.2,0.4
	c0,0-0.6,0.3-4.1,0.9c0,0-1.9,0.4-1.9,0.4c-0.1,0.1-0.1,0.3-0.1,0.4c0,0,0,2.2,0,2.2c0.1,0.1,9.1-0.2,9.1-0.2l10.4,0.3
	c0.1-0.1,0.1-0.6,0.1-0.6v-2c-0.1-0.1-1.7-0.4-1.7-0.4c-3.8-0.7-4.3-1-4.4-1.1c0,0-0.2-0.2-0.2-0.7c-0.1-2.4-0.2-7.1-0.2-13.8
	l0.2-18l5.7,0.1c2.6,0,3.3,0.2,3.5,0.3c0.4,0.2,0.7,0.5,0.9,1c0.1,0.3,0.5,1.6,1.7,6l0.1,0.4l3.1,0.1h0.1l-0.9-12l-0.6-0.1
	c0,0-16.1,0.3-16.1,0.3l-18.2-0.3C329.7,41.5,329.7,42,329.7,42"/>
<path d="M390.4,60.6c0,0-4-0.3-4-0.3c0.1,0,0.3-14.6,0.3-14.6c0,0.1,5.3-0.2,5.3-0.2c2.6,0,4.6,0.6,5.9,1.9c1.3,1.3,2,3,2,5.2
	c0,2.5-0.8,4.5-2.3,5.9C396,59.9,393.6,60.6,390.4,60.6 M415,79.7L415,79.7c-2.4-0.5-4.2-1-5.2-1.4c-0.7-0.3-1.2-0.6-1.7-0.9
	c-0.2-0.1-0.6-0.7-2.1-2.6c0,0-8.3-10.9-8.8-11.5c1.9-0.6,3.2-1.2,4.2-1.8c1.6-1.1,2.9-2.5,3.8-4.1c0.9-1.6,1.3-3.5,1.3-5.6
	c0-3.1-1-5.6-2.9-7.5c-2-1.8-4.9-2.7-8.6-2.7c0,0-4.1,0.1-4.1,0.1l-4.8,0l-12.4-0.3c-0.1,0.1-0.1,0.6-0.1,0.6v2
	c0.1,0.1,1.8,0.5,1.8,0.5c2,0.3,3.3,0.7,4.2,1.2c0,0,0.3,0.3,0.3,0.3c0,0,0.1,0.5,0.1,3.3l0.1,13.2c-0.1,12.2-0.1,14.1-0.1,14.4
	c0,0.7-0.2,1.1-0.4,1.4c-0.1,0.1-0.7,0.4-4.2,1.1c0,0-1.6,0.3-1.6,0.3l-0.1,2.6c0.1,0.1,9.9-0.2,9.9-0.2l9.4,0.3
	c0.1-0.1,0.1-0.6,0.1-0.6v-2c-0.1-0.1-2-0.5-2-0.5c-3-0.5-3.8-0.9-4-1.1c-0.2-0.2-0.3-0.4-0.3-0.8c0,0-0.2-12.8-0.2-13.5
	c0.2,0,4.2,0.3,4.2,0.3c0,0.1,6,8.2,6,8.2c0,0,0.6,0.7,0.6,0.7l2.6,3.7l3.6,5.5c0.1,0,0.4,0,0.4,0c0,0,4.7-0.3,4.7-0.3l6.9,0.3
	c0.1-0.1,0.1-0.6,0.1-0.6v-2C415.4,79.8,415,79.7,415,79.7"/>
<path d="M420.5,41.5v2.5c0.1,0.1,3.5,0.9,3.5,0.9c1.9,0.4,2.3,0.6,2.4,0.7c0,0,0.3,0.3,0.3,0.3c0,0,0.2,0.5,0.2,4l0.1,11.9l0,7.5
	l-0.2,6.6v0.5c0,1.3-0.2,1.7-0.3,1.9c0,0-0.2,0.2-1,0.4c0,0-0.6,0.1-4.5,1l-0.4,0.1l-0.1,2.6c0.1,0.1,13.6-0.2,13.6-0.2l19,0.3
	c0.1-0.1,0.2-0.4,0.2-0.4c0,0,3.7-11.3,3.7-11.3l-0.8,0h-2.2c-0.1,0.1-0.9,1.4-0.9,1.4c-1.5,2.7-2.5,4.2-2.9,4.7
	c-0.5,0.5-1,0.9-1.7,1.1c-0.1,0-0.7,0.2-2.9,0.2c0,0-1.1,0-1.1,0h-11.4c0,0,0-1.3,0-3.1c0-4.5-0.1-12.4-0.1-12.4l7.2,0.1
	c3.2,0,3.9,0.2,4,0.3c0.3,0.1,0.5,0.4,0.7,0.7c0,0.1,0.2,0.7,1,4.5l0.1,0.4l2.9,0.1c0.1-0.1-0.2-7.7-0.2-7.7l0.3-7.6
	c-0.1-0.1-0.6-0.1-0.6-0.1h-2.2c-0.1,0.1-0.5,1.4-0.5,1.4c-0.6,2.7-0.9,3.4-1,3.6c-0.2,0.3-0.5,0.5-0.8,0.6
	c-0.2,0.1-1.1,0.2-4.5,0.2h-6.4c0.1,0,0.2-4.9,0.2-4.9l0.2-8.6l10.9,0.1c2.5,0,3.5,0.2,3.9,0.3c0.3,0.1,0.6,0.4,0.9,0.9
	c0.5,0.8,1.1,2.4,1.8,4.9l0.1,0.3l3,0.1h0.1l-0.1-0.7c-0.4-3.1-0.6-6.3-0.7-9.5l0-0.5c-0.1-0.1-19.7,0.2-19.7,0.2
	c-4.8,0-9.1-0.1-12.6-0.3c0,0-0.6,0-0.6,0L420.5,41.5L420.5,41.5z"/>
<path d="M463.4,41.5v2.5c0.1,0.1,3.5,0.9,3.5,0.9c2,0.5,2.3,0.6,2.4,0.7c0,0,0.3,0.3,0.3,0.3c0,0,0.2,0.6,0.2,4l0,11.9l0,7.5
	l-0.2,6.6v0.5c0,1.3-0.2,1.7-0.3,1.9c0,0-1,0.4-1,0.4c0,0-0.6,0.1-4.5,1c0,0-0.4,0.1-0.4,0.1l-0.1,2.6c0.1,0.1,13.6-0.2,13.6-0.2
	l19,0.3c0.1-0.1,0.2-0.4,0.2-0.4c0,0,3.7-11.3,3.7-11.3l-0.8,0H497c-0.1,0.1-0.9,1.4-0.9,1.4c-1.8,3.3-2.6,4.4-3,4.7
	c-0.5,0.5-1,0.9-1.7,1.1c-0.1,0-0.7,0.2-2.9,0.2c0,0-1.1,0-1.1,0h-11.4c0,0,0-1.3,0-3.1c0-4.5-0.1-12.4-0.1-12.4l7.2,0.1
	c3.2,0,3.9,0.2,4,0.3c0.3,0.1,0.5,0.4,0.7,0.7c0,0.1,0.2,0.7,1,4.5l0.1,0.4l2.9,0.1c0.1-0.1-0.2-7.7-0.2-7.7l0.3-7.6
	c-0.1-0.1-0.6-0.1-0.6-0.1h-2.2c-0.1,0.1-0.5,1.4-0.5,1.4c-0.6,2.8-0.9,3.5-1,3.6c-0.2,0.3-0.5,0.5-0.8,0.6
	c-0.2,0.1-1.1,0.2-4.5,0.2H476c0.1,0,0.2-4.9,0.2-4.9l0.2-8.6l10.9,0.1c2.6,0,3.6,0.2,3.9,0.3c0.3,0.1,0.6,0.4,0.9,0.9
	c0.5,0.8,1.1,2.4,1.8,4.9l0.1,0.3l3,0.1h0.1l-0.1-0.7c-0.4-3.1-0.6-6.3-0.7-9.5l0-0.5c-0.1-0.1-19.7,0.2-19.7,0.2
	c-4.8,0-9.1-0.1-12.6-0.3l-0.6,0L463.4,41.5L463.4,41.5z"/>
</svg>
