<?xml version="1.0" encoding="UTF-8"?>
<svg id="Capa_1" data-name="Capa 1" xmlns="http://www.w3.org/2000/svg" version="1.1" viewBox="0 0 1078.8 156.9">
  <defs>
    <style>
      .cls-1 {
        fill-rule: evenodd;
      }

      .cls-1, .cls-2 {
        fill: #9a9999;
        stroke-width: 0px;
      }
    </style>
  </defs>
  <path class="cls-1" d="M73.4,45.6c25.4,0,46,20.2,46,45.2s-20.6,45.2-46,45.2-46-20.2-46-45.2c0-25,20.6-45.2,46-45.2"/>
  <path id="SVGID" class="cls-1" d="M75.2,20.6c39.6,0,71.8,30.5,71.8,68.2s-32.1,68.2-71.8,68.2-3.8-.1-5.7-.2c37-2.8,66.1-32.1,66.1-68S106.5,23.6,69.5,20.8c1.9-.2,3.8-.2,5.7-.2"/>
  <path id="SVGID-2" data-name="SVGID" class="cls-1" d="M73.6,15.5C32.9,15.5,0,46.8,0,85.4s32.9,69.9,73.6,69.9,3.9-.1,5.8-.2c-37.9-2.8-67.7-32.9-67.7-69.7S41.5,18.6,79.4,15.7c-1.9-.1-3.9-.2-5.8-.2"/>
  <path id="SVGID-3" data-name="SVGID" class="cls-1" d="M87.3,0c45.3,0,82.1,34.9,82.1,78s-36.8,78-82.1,78-4.4-.1-6.5-.2c42.3-3.1,75.6-36.8,75.6-77.8S123.1,3.4,80.8.2c2.1,0,4.3-.2,6.5-.2"/>
  <path class="cls-2" d="M959,106.5c0,6.3,0,11.7-.3,14.6-.2,2-.6,3.3-2.1,3.6-.6.2-1.5.2-2.5.2s-1.1.4-1.1.7c0,.5.5.7,1.4.7,2.8,0,7.7-.2,9.3-.2s6.8.2,11.5.2,1.4-.3,1.4-.7-.3-.7-1.1-.7-2.7,0-3.6-.2c-2.1-.3-2.5-1.6-2.7-3.6-.3-3-.4-8.4-.4-14.7v-27.7l9,.2c6.4,0,8.2,2.2,8.4,4v.7c.2,1,.3,1.4.9,1.4s.6-.4.6-1.1c0-1.8.2-6.9.2-8.3s0-1.5-.6-1.5-.8.2-1.9.3c-1,.2-2.6.3-4.8.3h-28.8c-2.3,0-5,0-7.1-.3-1.8-.2-2.5-.8-3.1-.8s-.6.4-.8,1.3c-.2.6-1.5,7.2-1.5,8.3s.2,1.1.6,1.1.6-.3.8-.9c.2-.5.5-1.4,1.2-2.3,1-1.5,2.7-2,6.9-2.1l10.6-.2v27.7h-.4ZM916.8,106.5c0,6.6,0,12.1-.3,14.9-.2,2-.6,3-2.1,3.3-.6.2-1.5.2-2.5.2s-1.1.4-1.1.7c0,.5.5.7,1.4.7,2.8,0,7.7-.2,9.3-.2s6.8.2,11.5.2,1.4-.3,1.4-.7-.3-.7-1.1-.7-2.7,0-3.6-.2c-2.1-.3-2.6-1.4-2.8-3.2-.3-2.9-.3-8.4-.3-15v-12.1c0-10.4,0-12.3.2-14.5.2-2.4.7-3.4,2.7-3.7.8-.2,1.4-.2,2.1-.2s1.1-.2,1.1-.8-.6-.6-1.5-.6c-2.7,0-7.3.2-9.1.2s-6.9-.2-9.5-.2-1.7.2-1.7.6c0,.6.4.8,1.1.8s1.8,0,2.6.3c1.5.5,2.3,1.3,2.4,3.6,0,2.2,0,4.1,0,14.5v12.1h-.3ZM868.7,106.5c0,6.3,0,11.7-.3,14.6-.2,2-.6,3.3-2.1,3.6-.6.2-1.5.2-2.5.2s-1.1.4-1.1.7c0,.5.5.7,1.4.7,2.8,0,7.3-.2,9-.2s6.9.2,11.6.2,1.3-.3,1.3-.7-.3-.7-1.1-.7-2.6,0-3.6-.2c-2.1-.3-2.5-1.6-2.7-3.6-.3-3-.3-8.4-.3-14.7v-27.1c0-.7.2-1.1.6-1.3.6-.2,2-.3,3.1-.3,1.6,0,4.5.3,7.1,2.6,4,3.4,4.2,7.9,4.2,10.2,0,7-5.6,11.1-9.5,11.1s-2.3.3-2.3.9.5.7.9.7c.3,0,1.8,0,2.1,0,10.1,0,17.8-6.9,17.8-16.6s-2-6.8-3.5-8.2c-1.1-1-4.4-3.9-13.2-3.9s-8.9.2-11.8.2-6.5-.2-10.2-.2-1.6.2-1.6.6.5.7,1.2.7c1,0,2.3,0,2.8.2,2.3.6,2.9,1.4,3.1,3.7,0,2.2,0,4.1,0,14.5v12.2h-.5ZM822.2,105.4c-.2,0-.4-.2-.2-.5l6.9-17.3c0-.2.2-.6.4-.6s.2.4.3.6l6.7,17.4c0,.2,0,.4-.3.4,0,0-13.8,0-13.8,0ZM837.4,109.1c.3,0,.6,0,.7.5l5.5,13.8c.3.8-.2,1.5-.6,1.5-.7,0-.9.3-.9.7s.8.5,2.1.6c6,.2,11.1.2,13.6.2s3.1-.2,3.1-.7-.3-.7-1-.7-1.6,0-2.7-.2c-1.3-.3-3.3-1.2-6.1-7.4-4.5-10.4-16.4-38.4-18.1-42.2-.7-1.5-1-2.2-2.1-2.2s-1.3.8-2.1,2.7l-18.6,43.2c-1.5,3.5-2.7,5.6-5.9,6.1-.6,0-1.5,0-2.1,0s-.8.3-.8.7c0,.6.4.7,1.3.7,3.7,0,7.5-.2,8.2-.2,2.3,0,5.6.2,7.9.2s1.1-.2,1.1-.7-.2-.7-1-.7h-1c-2.2,0-2.8-.7-2.8-1.9s.3-2.5,1-4.2l3.8-9.2c.2-.4.2-.5.6-.5h16.9v-.2ZM781.2,127.6c5.2,0,11.3-.6,14.5-1.9,1.4-.6,1.7-1,2.1-2.3.8-2.7,1.8-9.8,1.8-10.7s-.2-1.2-.7-1.2-.8.3-1,1.6c-.3,1.5-1.4,3.8-2.7,5.3-3.2,3.7-7.6,4.5-14.8,4.5-10.8,0-25.4-9.5-25.4-28.7s1.5-15.5,7.4-20.9c3.5-3.2,8.1-5,15.2-5s13.7,2.2,16.4,5c2,2.1,3.1,4.9,3.1,7.4s.2,1.8.8,1.8.9-.6,1-1.9c.2-1.6,0-6.1.2-8.7.2-2.8.4-3.8.4-4.4s-.3-.9-1.2-1c-2.4-.2-5-1-8.1-1.4-3.7-.5-6.7-.8-11.7-.8-12,0-19.7,3.2-25.5,8.6-7.7,7.1-9.4,16.6-9.4,22.1,0,7.8,2.1,16.9,10,23.8,7.3,6.3,16.6,8.8,27.6,8.8ZM680.2,79.3c0-.6.2-.8.6-1,.7-.2,2.4-.2,4.2-.2,4.2,0,10.8,2.5,10.8,12.2s-2.4,8.6-4.6,10.2c-1.2.9-2.2,1.1-5,1.1s-3.9-.2-5.4-.6c-.5-.2-.6-.5-.6-1.2v-20.5ZM671.2,106.5c0,6.3,0,11.7-.3,14.6-.2,2-.6,3.3-2.1,3.6-.6.2-1.5.2-2.5.2s-1.1.4-1.1.7c0,.5.5.7,1.4.7,2.8,0,7.3-.2,8.7-.2s6.9.2,11.1.2,1.5-.3,1.5-.7-.3-.7-.9-.7c-.9,0-2.4,0-3.5-.2-2.2-.3-2.5-1.6-2.7-3.6-.3-2.9-.4-8.2-.4-14.6v-1c0-.4.2-.6.6-.6l6.4.2c.5,0,.9,0,1.3.5.9,1,3.9,5.6,6.7,9.4,4,5.3,6.6,8.6,9.7,10.1,1.9,1,3.8,1.4,7.7,1.4h6.8c.9,0,1.4-.2,1.4-.7s-.3-.7-.9-.7-1,0-1.7-.2c-1.1-.2-3.6-.6-7.6-4.5-4.3-4.3-9.3-10.5-15.6-18.2,6.9-5.6,9.8-10.1,9.8-15.2s-3-8.1-5-9.4c-3.8-2.5-9-2.9-13.5-2.9s-8.6.2-11.1.2-6-.2-9.7-.2-1.6.2-1.6.6.5.7,1.2.7c1,0,2.3,0,2.8.2,2.3.6,2.9,1.4,3.1,3.7,0,2.2,0,4.1,0,14.5v12.1h-.1ZM626.3,106.5c0,6.3,0,11.7-.3,14.6-.2,2-.6,3.3-2.1,3.6-.6.2-1.5.2-2.5.2s-1.1.4-1.1.7c0,.5.5.7,1.4.7,1.5,0,3.2,0,4.9-.2,1.7,0,3.2,0,4,0,2.1,0,4.8,0,8.2.2,3.5.2,7.7.2,13.1.2s3.3,0,3.8-1.8c.4-1.4,1-6.1,1-7.6s0-1.6-.6-1.6-.6.3-.8,1c-.5,2.8-1.3,4.3-3.1,5.1-1.9.8-4.8.9-6.7.9-7.3,0-9.4-1-9.6-5.7,0-2,0-7.8,0-10.2v-5.5c0-.4,0-.7.4-.7,1.8,0,9.8.2,11.1.3,2.7.2,3.5,1.3,4,2.7.2.9.2,1.8.2,2.5s.2.6.6.6c.6,0,.7-1,.7-1.5s.2-3.2.3-4.6c.4-3.5.6-4.6.6-5s-.2-.7-.6-.7-.6.4-1.1.9c-.6.7-1.7.9-3.4,1-1.6.2-10.8.2-12.4.2s-.5-.3-.5-.7v-16.9c0-.4.2-.6.5-.6,1.5,0,9.9.2,11.1.3,3.5.3,4.1,1.3,4.7,2.5.4.8.5,2,.5,2.5s0,.9.6.9.7-.8.8-1.1c.2-.8.3-3.8.4-4.5.2-3.1.6-4,.6-4.4s0-.6-.5-.6-.7.2-1.1.3c-.6,0-1.7.3-3,.4-1.4,0-17.1,0-19.4,0s-6.5-.2-10.2-.2-1.6.2-1.6.6.5.7,1.2.7c1,0,2.3,0,2.8.2,2.3.6,2.9,1.4,3.1,3.7,0,2.2,0,4.1,0,14.5v12.2h-.1ZM586.1,123.2c1.4,3.2,1.9,4.1,2.9,4.1s1.6-1,3.4-5c1.6-3.5,4.9-11,9.4-21,3.9-8.4,5.7-12.1,8.6-18.6,1.9-4.4,2.8-5.4,3.7-6.1,1.2-.9,2.7-.8,3.5-.8s1.1-.2,1.1-.7-.6-.6-1.5-.6c-2.2,0-5.5.2-6.7.2s-4-.2-7.6-.2-2,.2-2,.6.6.7,1.2.7c.9,0,2,0,2.8.3.6.2,1,.5,1,1.2s-.3,1.6-.6,2.5c-1.7,4.5-10.8,26.6-13.9,33.7h-.2l-11.9-30.7c-1-2.4-1.6-4.3-1.6-5.2s.2-1,.7-1.4c.6-.4,1.6-.5,2.7-.5s1.1-.2,1.1-.7-.8-.6-1.7-.6c-3.5,0-7.3.2-9,.2-2.5,0-6.5-.2-10.3-.2s-1.8,0-1.8.6.2.7.8.7,1.7,0,2.7.2c2.6.6,3.6,1.3,5.3,5.1l17.9,42.2ZM542.1,106.5c0,6.6,0,12.1-.3,14.9-.2,2-.6,3-2.1,3.3-.6.2-1.5.2-2.5.2s-1.1.4-1.1.7c0,.5.5.7,1.4.7,2.8,0,7.7-.2,9.3-.2s6.8.2,11.5.2,1.4-.3,1.4-.7-.3-.7-1.1-.7-2.7,0-3.6-.2c-2.1-.3-2.6-1.4-2.8-3.2-.3-2.9-.3-8.4-.3-15v-12.1c0-10.4,0-12.3.2-14.5.2-2.4.7-3.4,2.7-3.7.8-.2,1.4-.2,2.1-.2s1.1-.2,1.1-.8-.6-.6-1.5-.6c-2.7,0-7.3.2-9.1.2s-6.9-.2-9.5-.2-1.7.2-1.7.6c0,.6.4.8,1.1.8s1.8,0,2.6.3c1.5.5,2.3,1.3,2.4,3.6,0,2.2,0,4.1,0,14.5v12.1h-.3ZM481.5,87.5c0-6.4,0-13.4.1-16.1,0-.9.2-1.3,1-1.6.6-.3,3.6-.6,5.2-.6,6.3,0,15.5,1,22.9,8.1,3.5,3.3,7.7,9.9,7.7,20.2s-1.6,15.7-6.8,20.1c-4.8,4.2-10.3,5.8-18.6,5.8s-9.5-1.7-10.6-3.2c-.6-.9-.8-4.1-.9-6.1-.1-1.5-.2-7.7-.2-16.3v-10.3h.2ZM471.4,103c0,7.4,0,13.8-.4,17.2-.3,2.3-.7,4.1-2.3,4.4-.7.2-1.7.3-2.9.3s-1.3.2-1.3.6c0,.6.6.8,1.6.8,1.6,0,3.7-.2,5.6-.2,1.9,0,3.7,0,4.6,0,2,0,4.8.3,7.9.5s6.4.5,9.3.5c14.9,0,23.3-5.7,27-9.5,4.5-4.6,8.8-12.3,8.8-22.5s-3.8-16.3-7.8-20.5c-8.8-9.2-22.3-9.2-32.4-9.2s-9.9.2-12.4.2-7.3-.2-11.6-.2-1.8.2-1.8.7.5.7,1.4.7,2.5,0,3.1.2c2.7.6,3.3,1.9,3.5,4.6.2,2.6.2,4.8.2,17.1v14.4h-.1ZM410.6,94.4c0-10.4,0-12.3.2-14.5.2-2.4.7-3.4,2.7-3.7.8-.2,1.9-.2,2.7-.2s1.3-.2,1.3-.7-.5-.6-1.5-.6c-2.7,0-8.6.2-10.2.2s-6.5-.2-9.8-.2-1.5.2-1.5.6.4.7,1.2.7,1.8,0,2.3.2c2.3.6,2.9,1.4,3.1,3.7-.1,2.1-.1,4.1-.1,14.5v12.1c0,6.3,0,11.7-.3,14.6-.2,2-.6,3.3-2.1,3.6-.6.2-1.5.2-2.5.2s-1.1.4-1.1.7c0,.5.5.7,1.4.7,1.5,0,3.2,0,4.9-.2,1.7,0,3.2,0,4,0,2.9,0,5.9,0,9.4.2,3.5.2,7.7.2,12.7.2s4-.3,4.5-1.9c.6-2,1-7.1,1-7.9s-.2-1.5-.6-1.5c-.6,0-.7.4-.8,1-.2,1.3-.9,3.2-1.8,4.1-1.8,1.9-4.5,1.9-8.3,1.9-5.5,0-8.2-.4-9.4-1.5-1.5-1.3-1.5-5.6-1.5-14.4v-11.8h0ZM354.7,79.3c0-.6.2-.8.6-1,.7-.2,2.4-.2,4.2-.2,4.2,0,10.8,2.5,10.8,12.2s-2.4,8.6-4.6,10.2c-1.2.9-2.2,1.1-5,1.1s-3.9-.2-5.4-.6c-.5-.2-.6-.5-.6-1.2v-20.5ZM345.7,106.5c0,6.3,0,11.7-.3,14.6-.2,2-.6,3.3-2.1,3.6-.6.2-1.5.2-2.5.2s-1.1.4-1.1.7c0,.5.5.7,1.4.7,2.8,0,7.3-.2,8.7-.2s6.9.2,11.1.2,1.5-.3,1.5-.7-.3-.7-.9-.7c-.9,0-2.4,0-3.5-.2-2.2-.3-2.5-1.6-2.7-3.6-.3-2.9-.4-8.2-.4-14.6v-1c0-.4.2-.6.6-.6l6.4.2c.5,0,.9,0,1.3.5.9,1,3.9,5.6,6.7,9.4,4,5.3,6.6,8.6,9.7,10.1,1.9,1,3.8,1.4,7.7,1.4h6.8c.9,0,1.4-.2,1.4-.7s-.3-.7-.9-.7-1,0-1.7-.2c-1.1-.2-3.6-.6-7.6-4.5-4.3-4.3-9.3-10.5-15.6-18.2,6.9-5.6,9.8-10.1,9.8-15.2s-3-8.1-5-9.4c-3.8-2.5-9-2.9-13.5-2.9s-8.6.2-11.1.2-6-.2-9.7-.2-1.6.2-1.6.6.5.7,1.2.7c1,0,2.3,0,2.8.2,2.3.6,2.9,1.4,3.1,3.7.1,2.2.1,4.1.1,14.5v12.1h0ZM299.2,105.4c-.2,0-.4-.2-.2-.5l6.9-17.3c.1-.2.2-.6.4-.6s.2.4.3.6l6.7,17.4c.1.2,0,.4-.3.4,0,0-13.8,0-13.8,0ZM314.5,109.1c.3,0,.6,0,.7.5l5.5,13.8c.3.8-.2,1.5-.6,1.5-.7,0-.9.3-.9.7s.8.5,2.1.6c6,.2,11.1.2,13.6.2s3.1-.2,3.1-.7-.3-.7-1-.7-1.6,0-2.7-.2c-1.3-.3-3.3-1.2-6.1-7.4-4.5-10.4-16.4-38.4-18.1-42.2-.7-1.5-1-2.2-2.1-2.2s-1.3.8-2.1,2.7l-18.6,43.2c-1.5,3.5-2.7,5.6-5.9,6.1-.6,0-1.5,0-2.1,0s-.8.3-.8.7c0,.6.4.7,1.3.7,3.7,0,7.5-.2,8.2-.2,2.3,0,5.6.2,7.9.2s1.1-.2,1.1-.7-.2-.7-1-.7h-1c-2.2,0-2.8-.7-2.8-1.9s.3-2.5,1-4.2l3.8-9.2c.2-.4.2-.5.6-.5h16.9v-.2ZM248.2,106.5c0,6.3,0,11.7-.3,14.6-.2,2-.6,3.3-2.1,3.6-.6.2-1.5.2-2.5.2s-1.1.4-1.1.7c0,.5.5.7,1.4.7,1.5,0,3.2,0,4.9-.2,1.7,0,3.2,0,4,0,2.1,0,4.8,0,8.2.2,3.5.2,7.7.2,13.1.2s3.3,0,3.8-1.8c.4-1.4,1-6.1,1-7.6s-.1-1.6-.6-1.6-.6.3-.8,1c-.5,2.8-1.3,4.3-3.1,5.1-1.9.8-4.8.9-6.7.9-7.3,0-9.4-1-9.6-5.7-.1-2,0-7.8,0-10.2v-5.5c0-.4.1-.7.4-.7,1.8,0,9.8.2,11.1.3,2.7.2,3.5,1.3,4,2.7.2.9.2,1.8.2,2.5s.2.6.6.6c.6,0,.7-1,.7-1.5s.2-3.2.3-4.6c.4-3.5.6-4.6.6-5s-.2-.7-.6-.7-.6.4-1.1.9c-.6.7-1.7.9-3.4,1-1.6.2-10.8.2-12.4.2s-.5-.3-.5-.7v-16.9c0-.4.2-.6.5-.6,1.5,0,9.9.2,11.1.3,3.5.3,4.1,1.3,4.7,2.5.4.8.5,2,.5,2.5s.1.9.6.9.7-.8.8-1.1c.2-.8.3-3.8.4-4.5.2-3.1.6-4,.6-4.4s-.1-.6-.5-.6-.7.2-1.1.3c-.6,0-1.7.3-3,.4-1.4,0-17.1,0-19.4,0s-6.5-.2-10.2-.2-1.6.2-1.6.6.5.7,1.2.7c1,0,2.3,0,2.8.2,2.3.6,2.9,1.4,3.1,3.7.1,2.2.1,4.1.1,14.5v12.2h-.1ZM197,103c0,7.4,0,13.8-.4,17.2-.3,2.3-.7,4.1-2.3,4.4-.7.2-1.7.3-2.9.3s-1.3.2-1.3.6c0,.6.6.8,1.6.8,3.2,0,8.3-.2,10.2-.2s7.2.2,12.5.2,1.5-.3,1.5-.8-.4-.6-1.3-.6-3-.2-4.1-.3c-2.4-.3-2.9-2.1-3.1-4.4-.4-3.5-.4-9.8-.4-17.3v-32.2c0-.9.2-1.4.6-1.5.7-.2,1.9-.3,3.1-.3,1.9,0,5.2.5,8.1,3.1,4.5,4,4.8,9.4,4.8,12.1,0,8.2-6.3,13.3-10.8,13.3s-2.3.2-2.3.9.6.6,1,.7,1.3,0,1.7,0c11.5,0,19.8-8.1,19.8-19.5s-2.3-7.9-4-9.6c-1.3-1.2-4.9-4.6-15-4.6s-8.4.2-11.7.2-7.3-.2-11.6-.2-1.8.2-1.8.7.5.7,1.4.7,2.5,0,3.1.2c2.7.6,3.3,1.9,3.5,4.6.2,2.6.2,4.8.2,17.1v14.3h-.1Z"/>
  <path class="cls-2" d="M1056.3,94.4c0-10.4,0-12.3.2-14.5.2-2.4.7-3.4,2.7-3.7.8-.2,1.9-.2,2.7-.2s1.3-.2,1.3-.7-.5-.6-1.5-.6c-2.7,0-8.6.2-10.2.2s-6.5-.2-9.8-.2-1.5.2-1.5.6.4.7,1.2.7,1.8,0,2.3.2c2.3.6,2.9,1.4,3.1,3.7,0,2.2,0,4.1,0,14.5v12.1c0,6.3,0,11.7-.3,14.6-.2,2-.6,3.3-2.1,3.6-.6.2-1.5.2-2.5.2s-1.1.4-1.1.7c0,.5.5.7,1.4.7,1.5,0,3.2,0,4.9-.2,1.7,0,3.2,0,4,0,2.9,0,5.9,0,9.4.2,3.5.2,7.7.2,12.7.2s4-.3,4.5-1.9c.6-2,1-7.1,1-7.9s-.2-1.5-.6-1.5c-.6,0-.7.4-.8,1-.2,1.3-.9,3.2-1.8,4.1-1.8,1.9-4.5,1.9-8.3,1.9-5.5,0-8.2-.4-9.4-1.5-1.5-1.3-1.5-5.6-1.5-14.4v-11.8h0ZM1000.3,105.4c-.2,0-.4-.2-.2-.5l6.9-17.3c0-.2.2-.6.4-.6s.2.4.3.6l6.7,17.4c0,.2,0,.4-.3.4,0,0-13.8,0-13.8,0ZM1015.6,109.1c.3,0,.6,0,.7.5l5.5,13.8c.3.8-.2,1.5-.6,1.5-.7,0-.9.3-.9.7s.8.5,2.1.6c6,.2,11.1.2,13.6.2s3.1-.2,3.1-.7-.3-.7-1-.7-1.6,0-2.7-.2c-1.3-.3-3.3-1.2-6.1-7.4-4.5-10.4-16.4-38.4-18.1-42.2-.7-1.5-1-2.2-2.1-2.2s-1.3.8-2.1,2.7l-18.6,43.2c-1.5,3.5-2.7,5.6-5.9,6.1-.6,0-1.5,0-2.1,0s-.8.3-.8.7c0,.6.4.7,1.3.7,3.7,0,7.5-.2,8.2-.2,2.3,0,5.6.2,7.9.2s1.1-.2,1.1-.7-.2-.7-1-.7h-1c-2.2,0-2.8-.7-2.8-1.9s.3-2.5,1-4.2l3.8-9.2c.2-.4.2-.5.6-.5h16.9v-.2Z"/>
</svg>