<?xml version="1.0" encoding="UTF-8"?>
<svg id="Camada_1" data-name="Camada 1" xmlns="http://www.w3.org/2000/svg" version="1.1" viewBox="0 0 945 945">
  <defs>
    <style>
      .cls-1 {
        fill: #000;
        stroke-width: 0px;
      }

      .cls-2, .cls-3 {
        fill: none;
        stroke: #000;
        stroke-miterlimit: 10;
      }

      .cls-3 {
        stroke-width: 3px;
      }
    </style>
  </defs>
  <g>
    <path class="cls-1" d="M109.7,474.7v-5.6l99.9-163.1h-15.5c-43.7,0-62.6,14.5-65.3,49.6h-3.7v-53.5h115.9l-.2,4.4-99.7,164.3h32.2c38.8,0,58.7-17.4,64.3-56.7h3.4v60.7H109.7Z"/>
    <path class="cls-1" d="M296.1,306h-24.8v-3.9h155.2c-.7,9.1-3.7,17.7-3.7,26.3s.2,13.5,1,21.1h-3.9c-7.6-32.7-22.8-43.5-56.2-43.5h-39v74.9c40.8,0,52.3-3.9,54-34.4h4.2c-.5,14-.7,28-.7,42s.2,22.3.7,33.4l-3.7.2c-4.4-35.6-22.1-37.3-54.5-37.3v86h38.1c39.8,0,55.7-21.4,61.4-50.8h3.4c-.5,11.3-1.2,22.1-1.2,32.4s.2,14.2,1.2,22.3h-156.2v-3.9h24.8v-164.8Z"/>
    <path class="cls-1" d="M642.6,306h-24.3v172.6h-4.7l-119.8-171.9v164h27v3.9h-55v-3.9h23.1v-164.8h-25v-3.9h61.4l88.4,126.7v-122.8h-26.5v-3.9h55.5v3.9Z"/>
    <path class="cls-1" d="M830.2,391.4c0,48.9-36.3,87.7-77.4,87.7s-77.4-38.8-77.4-87.7,35.6-92.6,77.4-92.6,77.4,44.7,77.4,92.6ZM801.3,392.4c0-62.9-13.5-89.1-48.4-89.1s-48.4,26.3-48.4,89.1,14.2,82.5,48.4,82.5,48.4-25,48.4-82.5Z"/>
  </g>
  <g>
    <path class="cls-1" d="M55.9,576.9h-7.9v-1.2h49.1c-.2,2.9-1.2,5.6-1.2,8.3s0,4.3.3,6.7h-1.2c-2.4-10.3-7.2-13.8-17.8-13.8h-12.4v23.7c12.9,0,16.6-1.2,17.1-10.9h1.3c-.2,4.4-.2,8.9-.2,13.3s0,7.1.2,10.6h-1.2c-1.4-11.2-7-11.7-17.3-11.7v27.2h12c12.6,0,17.6-6.8,19.4-16.1h1.1c-.2,3.6-.4,7-.4,10.3s0,4.5.4,7.1h-49.4v-1.2h7.9v-52.2Z"/>
    <path class="cls-1" d="M159.7,603.9c0,15.2-11,27.1-23.6,27.7,1.6,3.8,3.6,5.2,7.7,5.2s1.2,0,2.1,0c1.6,2.8,2.3,3.7,4.8,5.5,2.5,1.9,3.7,2.3,6.9,2.6v1.2c-4.8,0-6.8-.2-10.1-1.2-7.2-2.2-10.1-5.1-13.4-13.3-12.6-.5-23.5-12.6-23.5-27.7s11.3-29.3,24.5-29.3,24.5,14.1,24.5,29.3ZM150.5,604.3c0-19.9-4.3-28.2-15.3-28.2s-15.3,8.3-15.3,28.2,4.5,26.1,15.3,26.1,15.3-7.9,15.3-26.1Z"/>
    <path class="cls-1" d="M194.4,575.6v1.2h-8.1v39.8c0,8.6,4.4,13.5,13.7,13.5s15.9-5.7,15.9-17v-36.3h-9.1v-1.2h18.6v1.2h-8.2v38c0,10.8-6.4,16.8-17.8,16.8s-22.1-6.4-22.1-18.5v-36.3h-8.3v-1.2h25.4Z"/>
    <path class="cls-1" d="M237.2,630.3v-1.2h7.9v-52.2h-7.9v-1.2h24.7v1.2h-7.9v52.2h7.9v1.2h-24.7Z"/>
    <path class="cls-1" d="M288.3,630.3v-1.2h8.3v-52.2h-4.4c-7.5,0-14.4,7.1-14.7,14.8h-1.5c.6-4.3.9-8.2.9-11.7s0-3-.2-4.4h48.7c-.2,1.4-.2,2.9-.2,4.4,0,3.4.3,7.4.9,11.7h-1.5c-.3-7.8-7.2-14.8-14.7-14.8h-4.4v52.2h8.3v1.2h-25.5Z"/>
    <path class="cls-1" d="M360.6,629v-24.5l-17.6-27.7h-7.2v-1.2h24.7v1.2h-7.1l15.5,25,13.8-25h-7.9v-1.2h17.2v1.2h-7.3l-14.9,26.7v25.4h8.8v1.2h-26.4v-1.2h8.5Z"/>
    <path class="cls-1" d="M451,575.6c13.9,0,22.7,6.5,22.7,16.9s-8.5,15.2-18.6,15.2h-10.6v21.4h7.9v1.2h-24.6v-1.2h7.9v-52.2h-7.3v-1.2h22.7ZM444.5,606.2h8.6c7.9,0,11.7-4.6,11.7-14s-4.7-15.3-11.7-15.3h-8.6v29.3Z"/>
    <path class="cls-1" d="M499.1,574.9l1.3-.3,21.6,54.4h6.9v1.2h-23.6v-1.2h7.5l-6.8-17.4h-15.8l-5,17.4h7.5v1.2h-16.6v-1.2h7.2l15.7-54.1ZM490.8,609.8h14.5l-8.5-21.6-6,21.6Z"/>
    <path class="cls-1" d="M566.2,575.6c12.7,0,19.3,6.2,19.3,12.8s-4.2,10.5-14.2,12c6.7,1.2,14.3,3.9,14.3,12.4v8.6c0,6.1,1.5,7.3,9.1,7.5v1.2c-9.5,0-18-1.1-18-12.9v-7.7c0-5.6-3.5-8.2-9.7-8.2h-11v27.6h8.3v1.2h-24.9v-1.2h7.5v-52.2h-7.1v-1.2h26.4ZM566.6,600.2c6.1,0,10-4.4,10-11.1s-4.9-12.4-12.7-12.4h-8.1v23.6h10.8Z"/>
    <path class="cls-1" d="M610.2,630.3v-1.2h8.3v-52.2h-4.4c-7.5,0-14.4,7.1-14.7,14.8h-1.5c.6-4.3.9-8.2.9-11.7s0-3-.2-4.4h48.7c-.2,1.4-.2,2.9-.2,4.4,0,3.4.3,7.4.9,11.7h-1.5c-.3-7.8-7.2-14.8-14.7-14.8h-4.4v52.2h8.3v1.2h-25.5Z"/>
    <path class="cls-1" d="M719,576.9h-7.7v54.6h-1.5l-37.9-54.4v51.9h8.5v1.2h-17.4v-1.2h7.3v-52.2h-7.9v-1.2h19.4l28,40.1v-38.9h-8.4v-1.2h17.6v1.2Z"/>
    <path class="cls-1" d="M740,576.9h-7.9v-1.2h49.1c-.2,2.9-1.2,5.6-1.2,8.3s0,4.3.3,6.7h-1.2c-2.4-10.3-7.2-13.8-17.8-13.8h-12.4v23.7c12.9,0,16.6-1.2,17.1-10.9h1.3c-.2,4.4-.2,8.9-.2,13.3s0,7.1.2,10.6h-1.2c-1.4-11.2-7-11.7-17.3-11.7v27.2h12c12.6,0,17.6-6.8,19.4-16.1h1.1c-.2,3.6-.4,7-.4,10.3s0,4.5.4,7.1h-49.4v-1.2h7.9v-52.2Z"/>
    <path class="cls-1" d="M821.6,575.6c12.7,0,19.3,6.2,19.3,12.8s-4.2,10.5-14.2,12c6.7,1.2,14.3,3.9,14.3,12.4v8.6c0,6.1,1.5,7.3,9.1,7.5v1.2c-9.5,0-18-1.1-18-12.9v-7.7c0-5.6-3.5-8.2-9.7-8.2h-11v27.6h8.3v1.2h-24.9v-1.2h7.5v-52.2h-7.1v-1.2h26.4ZM822.1,600.2c6.1,0,10-4.4,10-11.1s-4.9-12.4-12.7-12.4h-8.1v23.6h10.8Z"/>
    <path class="cls-1" d="M893.2,620c0-9.8-9.6-11.7-18.3-14.7-7.4-2.6-14.2-6-14.2-15.5s5.2-15.2,13.8-15.2,7.6,1.1,10,2.8c1.6,1,1.9,1.2,2.6,1.2,1.6,0,2.7-1.2,3-3.2h1.2l.5,16.3h-1.3c-1.3-5.4-2.3-7.8-4-10-2.7-3.7-7.1-5.8-11.8-5.8s-10.9,3-10.9,8.8c0,8.5,8.8,10.1,17.3,12.8,8,2.5,15.8,6,15.8,16.7s-6.5,17.4-16.8,17.4-6.6-.8-9.3-2.3l-3.8-2.1c-.8-.5-1.6-.7-2.3-.7-1.6,0-2.3,1-3,3.8h-1.1v-19.2c0,0,1,0,1,0,1.3,6.8,2,8.9,4.1,12,2.9,4.3,8.9,7.3,14.5,7.3s13-3.6,13-10.5Z"/>
  </g>
  <line class="cls-2" x1="48.1" y1="518.2" x2="896.3" y2="518.2"/>
  <line class="cls-3" x1="48.1" y1="529.2" x2="896.3" y2="529.2"/>
</svg>